<svg xmlns="http://www.w3.org/2000/svg" xmlns:xlink="http://www.w3.org/1999/xlink" width="180" height="186.402" viewBox="0 0 180 186.402">
  <defs>
    <clipPath id="clip-path">
      <rect id="Rectangle_1695" data-name="Rectangle 1695" width="180" height="186.402" fill="none"/>
    </clipPath>
    <linearGradient id="linear-gradient" x1="0.5" x2="0.5" y2="1" gradientUnits="objectBoundingBox">
      <stop offset="0" stop-color="#c48e2c"/>
      <stop offset="0.222" stop-color="#cc9a37"/>
      <stop offset="0.5" stop-color="#f1d277"/>
      <stop offset="0.628" stop-color="#fefdfb"/>
      <stop offset="0.768" stop-color="#f1d277"/>
      <stop offset="0.908" stop-color="#cba253"/>
      <stop offset="1" stop-color="#bd9155"/>
    </linearGradient>
    <linearGradient id="linear-gradient-2" x1="0.5" x2="0.5" y2="1" gradientUnits="objectBoundingBox">
      <stop offset="0" stop-color="#c38f2c"/>
      <stop offset="0.134" stop-color="#ce9e3a"/>
      <stop offset="0.258" stop-color="#f1d277"/>
      <stop offset="0.362" stop-color="#fefdfb"/>
      <stop offset="0.454" stop-color="#f1d277"/>
      <stop offset="0.55" stop-color="#cba253"/>
      <stop offset="0.7" stop-color="#884b1f"/>
      <stop offset="0.881" stop-color="#be8f49"/>
      <stop offset="1" stop-color="#f2d076"/>
    </linearGradient>
    <linearGradient id="linear-gradient-3" x1="0.5" x2="0.5" y2="1" gradientUnits="objectBoundingBox">
      <stop offset="0" stop-color="#c48e2c"/>
      <stop offset="0.134" stop-color="#bd9155"/>
      <stop offset="0.258" stop-color="#f1d277"/>
      <stop offset="0.362" stop-color="#fefdfb"/>
      <stop offset="0.454" stop-color="#f1d277"/>
      <stop offset="0.55" stop-color="#cba253"/>
      <stop offset="0.7" stop-color="#884b1f"/>
      <stop offset="0.881" stop-color="#be8f49"/>
      <stop offset="1" stop-color="#f2d076"/>
    </linearGradient>
  </defs>
  <g id="logo_50years-gold" clip-path="url(#clip-path)">
    <path id="Path_1004" data-name="Path 1004" d="M52.772,230.7h2.442v11.156H53.97v-10H52.121Zm17.505,2.123a3.647,3.647,0,0,1,.3,1.487,3.345,3.345,0,0,1-.3,1.413,7.991,7.991,0,0,1-.733,1.265l-3.7,5.061-.932-.636,2.575-3.536-.03-.03a2.846,2.846,0,0,1-.466.11,3.266,3.266,0,0,1-.5.037,3.526,3.526,0,0,1-1.428-.288,3.569,3.569,0,0,1-1.146-.792,3.618,3.618,0,0,1-.762-1.176,3.746,3.746,0,0,1-.274-1.428,3.634,3.634,0,0,1,.3-1.487,3.85,3.85,0,0,1,2.057-2.02,3.884,3.884,0,0,1,2.974,0,3.855,3.855,0,0,1,2.057,2.02m-.94,1.442a2.481,2.481,0,0,0-.207-1.006,2.66,2.66,0,0,0-1.391-1.391,2.481,2.481,0,0,0-1.006-.208,2.517,2.517,0,0,0-1.02.208,2.645,2.645,0,0,0-.829.562,2.629,2.629,0,0,0-.555,2.848,2.519,2.519,0,0,0,.555.814,2.632,2.632,0,0,0,.829.548,2.59,2.59,0,0,0,1.02.2,2.551,2.551,0,0,0,1.006-.2,2.607,2.607,0,0,0,1.391-1.362,2.466,2.466,0,0,0,.207-1.014m6.074-2.411h6.1l-6.333,9.617.976.577L83.637,230.7H75.411Zm19.509,1.953a3.064,3.064,0,0,0-.287-1.331,3.3,3.3,0,0,0-.77-1.043,3.525,3.525,0,0,0-1.117-.681,3.683,3.683,0,0,0-1.332-.244,3.4,3.4,0,0,0-2.441.991,3.354,3.354,0,0,0-.724,1.095,3.675,3.675,0,0,0-.281,1.362h1.243a2.736,2.736,0,0,1,.178-.91,2.165,2.165,0,0,1,.451-.726,2.1,2.1,0,0,1,.7-.48,2.29,2.29,0,0,1,.917-.178,2.267,2.267,0,0,1,.858.163,2.244,2.244,0,0,1,.7.451,2.142,2.142,0,0,1,.48.688,2.09,2.09,0,0,1,.178.858,2.413,2.413,0,0,1-.207,1.006,3.63,3.63,0,0,1-.547.859l-5.223,6.17h7.22V240.7h-4.7l3.862-4.542a3.48,3.48,0,0,0,.843-2.353m6.159,5.031h3.034v-1.095h-3.034Zm15.406-5.031a3.064,3.064,0,0,0-.288-1.331,3.3,3.3,0,0,0-.77-1.043,3.525,3.525,0,0,0-1.117-.681,3.676,3.676,0,0,0-1.331-.244,3.4,3.4,0,0,0-2.442.991,3.367,3.367,0,0,0-.724,1.095,3.661,3.661,0,0,0-.281,1.362h1.243a2.717,2.717,0,0,1,.178-.91,2.153,2.153,0,0,1,.451-.726,2.091,2.091,0,0,1,.7-.48,2.3,2.3,0,0,1,.918-.178,2.264,2.264,0,0,1,.858.163,2.235,2.235,0,0,1,.7.451,2.156,2.156,0,0,1,.481.688,2.091,2.091,0,0,1,.178.858,2.425,2.425,0,0,1-.207,1.006,3.656,3.656,0,0,1-.548.859l-5.223,6.17h7.22V240.7h-4.7l3.861-4.542a3.476,3.476,0,0,0,.844-2.353m13.064,1.259a8.472,8.472,0,0,1,.1,1.227,8.2,8.2,0,0,1-.266,2.064,6.615,6.615,0,0,1-.777,1.849,4.411,4.411,0,0,1-1.258,1.332,3.077,3.077,0,0,1-3.395,0,4.427,4.427,0,0,1-1.251-1.332,6.637,6.637,0,0,1-.777-1.849,8.2,8.2,0,0,1-.266-2.064,8.359,8.359,0,0,1,.1-1.227,7.572,7.572,0,0,1,.31-1.295,7.865,7.865,0,0,1,.533-1.235,4.535,4.535,0,0,1,.762-1.043,3.482,3.482,0,0,1,1.013-.718,3.208,3.208,0,0,1,2.56,0,3.481,3.481,0,0,1,1.013.718,4.512,4.512,0,0,1,.762,1.043,7.865,7.865,0,0,1,.533,1.235,7.656,7.656,0,0,1,.31,1.295m-1.146,1.169a7.947,7.947,0,0,0-.119-1.273,6.255,6.255,0,0,0-.458-1.546,3.884,3.884,0,0,0-.858-1.243,1.954,1.954,0,0,0-2.634,0,3.881,3.881,0,0,0-.857,1.243,6.223,6.223,0,0,0-.46,1.546,8.106,8.106,0,0,0-.118,1.273v.118c.009.257.034.551.073.881a7.372,7.372,0,0,0,.193,1,6.6,6.6,0,0,0,.347.984,3.7,3.7,0,0,0,.518.85,2.53,2.53,0,0,0,.7.6,1.946,1.946,0,0,0,1.835,0,2.524,2.524,0,0,0,.7-.6,3.676,3.676,0,0,0,.518-.85,6.429,6.429,0,0,0,.348-.984,7.3,7.3,0,0,0,.192-.991q.059-.489.074-.888Zm12.955-2.428a3.064,3.064,0,0,0-.288-1.331,3.3,3.3,0,0,0-.77-1.043,3.525,3.525,0,0,0-1.117-.681,3.676,3.676,0,0,0-1.331-.244,3.4,3.4,0,0,0-2.442.991,3.366,3.366,0,0,0-.724,1.095,3.691,3.691,0,0,0-.281,1.362h1.243a2.718,2.718,0,0,1,.178-.91,2.153,2.153,0,0,1,.451-.726,2.1,2.1,0,0,1,.7-.48,2.3,2.3,0,0,1,.918-.178,2.264,2.264,0,0,1,.858.163,2.235,2.235,0,0,1,.7.451,2.144,2.144,0,0,1,.481.688,2.091,2.091,0,0,1,.177.858,2.425,2.425,0,0,1-.207,1.006,3.655,3.655,0,0,1-.548.859l-5.223,6.17h7.22V240.7h-4.7l3.861-4.542a3.477,3.477,0,0,0,.844-2.353m11.594,2.353a3.48,3.48,0,0,0,.843-2.353,3.064,3.064,0,0,0-.288-1.331,3.291,3.291,0,0,0-.769-1.043,3.52,3.52,0,0,0-1.117-.681,3.67,3.67,0,0,0-1.331-.244,3.4,3.4,0,0,0-2.441.991,3.369,3.369,0,0,0-.725,1.095,3.69,3.69,0,0,0-.281,1.362h1.243a2.735,2.735,0,0,1,.178-.91,2.164,2.164,0,0,1,.451-.726,2.1,2.1,0,0,1,.7-.48,2.294,2.294,0,0,1,.918-.178,2.269,2.269,0,0,1,.858.163,2.232,2.232,0,0,1,.7.451,2.132,2.132,0,0,1,.481.688,2.079,2.079,0,0,1,.178.858,2.413,2.413,0,0,1-.208,1.006,3.652,3.652,0,0,1-.547.859l-5.223,6.17h7.219V240.7h-4.7Z" transform="translate(-12.582 -55.646)" fill="#fff"/>
    <path id="Path_1005" data-name="Path 1005" d="M61.569,54.946a64.5,64.5,0,0,0-15.232,2.037L53.1,20.159h56.417V0H36.557L20.717,85.145l4.434-1.893C37.979,77.775,48.988,75,57.875,75a38.007,38.007,0,0,1,9.432.982,60.485,60.485,0,0,1,6.459-19.736,53.4,53.4,0,0,0-12.2-1.3" transform="translate(-5.001)" fill="url(#linear-gradient)"/>
    <path id="Path_1006" data-name="Path 1006" d="M151.812,135.955c-9.09,1.764-20.439-1.459-25.109-3.577a66.784,66.784,0,0,1-7.65,17.393c6.259,2.72,24.032,6.214,38.491,3.625Zm47.383-69.2c-14.859-27.087-35.47-35.01-49.622-36.118-.147-.013-.3-.02-.442-.032-1.7-.121-3.408-.2-5.155-.2l-.053,0-.053,0c-1.749,0-3.461.08-5.156.2-.147.011-.294.019-.441.032A58.983,58.983,0,0,0,98.166,50.225a64.009,64.009,0,0,0-9.5,13.551A60.473,60.473,0,0,0,82.41,83.561a67.813,67.813,0,0,0-.7,9.37c0,1.717.094,3.4.229,5.075.057.749.133,1.491.216,2.233s.193,1.46.3,2.186a60.793,60.793,0,0,0,13.138,29.758c.941,1.186,1.953,2.343,3,3.486.171.186.316.383.489.568.485.517.984,1.006,1.48,1.5a40.06,40.06,0,0,0,6.082-22.07c0-.828-.053-1.621-.095-2.421-.028-.056-.06-.113-.09-.169v0A43.394,43.394,0,0,1,101.977,97.5c-.133-1.4-.216-2.817-.216-4.25a47.649,47.649,0,0,1,.386-5.775,43.753,43.753,0,0,1,1.157-6.056l.008-.033c.218-.818.476-1.619.742-2.416q.18-.536.372-1.066c.262-.721.535-1.435.837-2.138.2-.466.426-.921.644-1.38.357-.753.754-1.489,1.158-2.222.1-.18.182-.366.284-.545.368-.642.735-1.283,1.139-1.909.281-.439.583-.869.882-1.3q.71-1.018,1.484-2.007c.258-.329.511-.661.779-.985.834-1,1.7-1.986,2.64-2.94a42.751,42.751,0,0,1,13.366-9.412c.178-.077.354-.156.533-.229q1.568-.658,3.19-1.171c.439-.137.89-.247,1.334-.37.72-.2,1.444-.388,2.18-.546.513-.111,1.03-.209,1.551-.3.763-.134,1.536-.243,2.317-.333.452-.053.9-.115,1.36-.154,1.25-.1,2.517-.175,3.814-.175h.011c1.3,0,2.563.071,3.814.175.458.039.907.1,1.359.154.781.09,1.555.2,2.318.333.521.092,1.038.19,1.55.3.736.159,1.462.347,2.181.546.445.123.9.232,1.334.37q1.621.514,3.191,1.171c.178.074.355.152.533.229a42.771,42.771,0,0,1,13.367,9.412c.936.952,1.8,1.937,2.637,2.937.27.326.524.66.783.991q.151.192.3.385Z" transform="translate(-19.725 -7.34)" fill="url(#linear-gradient-2)"/>
    <path id="Path_1007" data-name="Path 1007" d="M93.89,90.739a50.943,50.943,0,0,0-6.229-5.4c-.4.733-.8,1.468-1.157,2.222-.218.458-.445.913-.645,1.378-.3.7-.575,1.419-.837,2.14-.129.352-.252.709-.372,1.066-.266.8-.524,1.6-.742,2.415a.255.255,0,0,0-.008.033,43.658,43.658,0,0,0-1.158,6.055,47.517,47.517,0,0,0-.387,5.776c0,1.434.084,2.848.217,4.251a32.957,32.957,0,0,1,4.575,15.749c.042.8.094,1.592.094,2.421a40.07,40.07,0,0,1-6.08,22.071,37.7,37.7,0,0,1-4.351,5.567c-6.984,7.374-15.094,10.959-24.8,10.959a32.128,32.128,0,0,1-14.035-3.224,28.973,28.973,0,0,1-10.635-8.4A33.146,33.146,0,0,1,21.668,142.1l-.415-2.077H0l.4,2.936C2.2,155.952,7.777,166.7,16.99,174.9c9.23,8.215,20.691,12.381,34.063,12.381,11.109,0,21.067-2.436,29.6-7.242a52.144,52.144,0,0,0,18.124-17.073c.8-1.227,1.582-2.483,2.308-3.794a59.06,59.06,0,0,0,5.531-13.917,63.25,63.25,0,0,0,1.969-15.824c0-15.617-4.943-28.636-14.692-38.693" transform="translate(0 -20.602)" fill="url(#linear-gradient-3)"/>
    <path id="Path_1008" data-name="Path 1008" d="M220.279,102.8a10.148,10.148,0,0,1-6.305,3.829c-2.408.451-8.15-.083-10.9,2.748-1.383,1.42-1.532,3.6-3.241,6.126a5.823,5.823,0,0,1-5.677,2.972c-2.333-.108-2.869-.578-2.869-.578a10.443,10.443,0,0,0,2.6-1.945c1.525-1.825,1.469-1.8,2.7-5.5,1.442-4.325,1.195-6.059,3.694-7.206,2.444-1.125,4.961-.309,9.1-.722a15.864,15.864,0,0,0,7.206-2.343c2.073-1.441,3.635-2.334,5.174-6.06.28-.683,1.5,4.843-1.481,8.675m-38.2,11.771a7.7,7.7,0,0,1,1.925,3.842c4.865-.8,8.9-2.608,10.776-9.578,1.621-6.035,1.889-7.71,6.714-8.274.644-.081,3.549.146,7.072.076,8.949-.168,15.948-9.642,11.442-15.407,0,0,.171,3.657-1.081,5.946a9.171,9.171,0,0,1-4.954,4.684c-2.112.862-3.063.724-6.577.634-2.8-.073-4.328-.14-6.759-.366-2.975-.268-3.785-.268-5.316.456-1.463.687-1.767,1.447-3.047,4.312q-.583,1.3-2.113,6.46a8.476,8.476,0,0,1-.967-6.9c.722-2.16,1.891-3.333,3.693-4.865-2.014-.179-5.739.769-7.232,4.035-1.326,2.9-1.041,4.316-1.1,8.288h-.278l-.685-1.8-.524-1.706L182.8,102.3c0-3.962,2.153-9.513,9.642-8.96,2.431.18,12.342,1.623,17.929,1.442,4.978-.157,6.847-3.784,7.477-7.476-2.251,3.061-3.425,3.512-6.936,3.962s-10.182-.944-13.427-1.532a44,44,0,0,0-9.819-.539c-10.026.793-16.507,12.2-6.98,23.679Zm4.684,22.964c-2.1,0-5.994-2.058-5.994-2.058a26.67,26.67,0,0,1,1.023-2.913,20.893,20.893,0,0,0,2.805,1.255,8.735,8.735,0,0,0,2.093.233c1.761-.135,7.509-2.3,7.222-2.87-.361-.71-5.262,1.516-7.353,1.516a11.364,11.364,0,0,1-4.767-1.67,10.51,10.51,0,0,1-1.68-1.119c-.88-.95-.593-1.543-.3-1.536,1.306.02,5.1,1.14,6.336.746,2.546-.812,5.135-1.758,5.135-1.758s1.928-.812,2.56-1.031c0,0-.357-2.483-1.617-2.66s-4.34,1.393-4.944,1.206a6.655,6.655,0,0,0-.037-1.7c-.134-2.01-3.429-3.169-3.451-3.018a22.509,22.509,0,0,1-.693,3.081c-.484,1.771-.489,1.867-1.092,2.135-.884.395-5.121-.963-5.856-.438-.62.438-1.164,2.883-1.164,3.557a5.22,5.22,0,0,0,2.341,4.219c-.04.628-.885,2.547-1.29,4.217-.106,1.846,1.211,1.992,3.5,2.968l2.833,1.292c.219.955-1.9,3.849-1.1,5.121.432.687,6.317.375,7.216.465,0,0,.135,1,.2,2.409.05,1.052.027,1.255.118,2.81.11,1.65.216,5.041.278,6.431.5,11.246-1.412,25.345-.288,25.436s3.951-9.993,4.577-13.883c.7-4.457.6-10.837.14-19.176-.342-6.135.256-7.3-.545-7.97-.47-.535-6.823.131-6.825-.193-.015-.944,1.41-2.847.911-3.79a.243.243,0,0,0-.017-.022c1.63-.25,7.4-2.1,7.066-2.812-.349-.742-5.259,1.523-7.349,1.523" transform="translate(-42.246 -20.575)" fill="#fff"/>
  </g>
</svg>
