<svg xmlns="http://www.w3.org/2000/svg" xmlns:xlink="http://www.w3.org/1999/xlink" width="194" height="47.591" viewBox="0 0 194 47.591">
  <defs>
    <clipPath id="clip-path">
      <rect id="Rectangle_31" data-name="Rectangle 31" width="194" height="47.591" fill="#fff"/>
    </clipPath>
  </defs>
  <g id="logo_footer_liberty-bank" clip-path="url(#clip-path)">
    <path id="Path_535" data-name="Path 535" d="M20.432.962c-2.494,3.721-7.451.674-13.446.8C4.035,1.822.846,3.6.916,7.678A8.082,8.082,0,0,0,2.349,11.8c.36.509,2.567,3.076,2.292,3.623,0,0,3.673-.347,4.585-3.184s.881-5.292,4.3-5.142c0,0,3.676.478,5.664-.792,2.2-1.4,3.93-3.87,2.3-6.306,0,0,.194,4.751-4.034,5.245a44.908,44.908,0,0,1-5.693-.284A2.763,2.763,0,0,0,8.642,6.933L7.521,10.265A4.923,4.923,0,0,1,6.938,7.8a4.574,4.574,0,0,1,1.838-3c.374-.15-2.534-.234-3.512,2.256a10.78,10.78,0,0,0-.359,3.541s-2.256-3.87.822-6.186a4.2,4.2,0,0,1,2.929-.643s5.514.522,6.142.6a8.58,8.58,0,0,0,3.511-.24A3.677,3.677,0,0,0,20.429.982Z" transform="translate(-0.418 0)" fill="#fff"/>
    <path id="Path_536" data-name="Path 536" d="M28.285,7.461s-.524,2.131-3.5,3.451a11.411,11.411,0,0,1-4.909.544c-1.228-.013-2.346.108-2.937,2.175a18.589,18.589,0,0,1-1.305,3.621A3.356,3.356,0,0,1,14,18.6a3.355,3.355,0,0,0,3-.06c1.131-.515,1.678-2.377,1.988-3.029s.979-1.756,3.31-1.943,3.449-.2,4.537-1.243A4.475,4.475,0,0,0,28.32,7.584Z" transform="translate(-6.386 -3.405)" fill="#fff"/>
    <path id="Path_537" data-name="Path 537" d="M4.12,29.867s-.353,1.654-.427,1.878-.019.781-1.191.557-1.6-.3-1.6-.3-.409-.038-.632.52a2.449,2.449,0,0,0,.818,3.256L.679,37.121s-.5,1.228.539,1.636c1.218.48,1.99.855,1.99.855s.335.075.2.466c-.145.435-.521,1.32-.521,1.32s-.446.894.763.93S6.3,42.4,6.3,42.4s.364,6.244.335,8.183c-.038,2.456-.316,6.4-.372,7.236s-.1,1.9.13,1.914c.242.02.6-.649.967-1.859a31.619,31.619,0,0,0,1.3-5.356c.085-1.642.149-4.725.055-6.788s-.111-4.018-.13-4.446.149-.892-.8-.874-1.917.073-2.177.073-.484.057-.242-.556a9.424,9.424,0,0,0,.316-.893.878.878,0,0,0-.019-.371c-.051-.092.54-.131,1.173-.337s1.078-.371,1.432-.52.726-.334.65-.483-.52-.039-.819.055-1.6.52-1.934.577a3.13,3.13,0,0,1-1.505-.092c-.633-.2-1.935-.8-1.935-.8l.484-1.3s.736.353.893.409a3.388,3.388,0,0,0,2.268.056,16.217,16.217,0,0,0,1.99-.744c.2-.092.577-.26.484-.409s-.409-.074-.669.019-1.507.445-1.767.519a2.872,2.872,0,0,1-2.269-.147c-1.06-.558-1.5-.885-1.71-.986-.317-.15-.565-.9.315-.707.93.2,1.061.223,1.507.3a2.64,2.64,0,0,0,1.637-.184c.967-.316,2.92-1.08,2.92-1.08s-.169-.557-.26-.819-.336-.65-1.117-.389-1.636.52-1.636.52-.018-.54-.018-.744-.2-1.153-1.655-1.506" transform="translate(0 -13.629)" fill="#fff"/>
    <path id="Path_538" data-name="Path 538" d="M41.2,29.9H37.04V53.153H48.913V48.992H41.324Z" transform="translate(-16.902 -13.643)" fill="#fff"/>
    <rect id="Rectangle_30" data-name="Rectangle 30" width="4.162" height="15.79" transform="translate(33.5 23.721)" fill="#fff"/>
    <path id="Path_539" data-name="Path 539" d="M65.791,33.458a2.537,2.537,0,1,1-2.537-2.538,2.538,2.538,0,0,1,2.537,2.538" transform="translate(-27.707 -14.11)" fill="#fff"/>
    <path id="Path_540" data-name="Path 540" d="M334.322,29.9h-4.284V53.276h4.284V45.319l5.264,7.834h4.9l-6.366-9.548,6.488-8.446h-5.263l-5.02,6.733Z" transform="translate(-150.605 -13.643)" fill="#fff"/>
    <path id="Path_541" data-name="Path 541" d="M269.369,58.058a9.6,9.6,0,0,0,5.845-2.069v1.437h4.161s.032-8.438.032-8.672c0-5.137-4.5-9.3-10.038-9.3s-10.038,4.165-10.038,9.3,4.495,9.3,10.038,9.3m0-14.321c3.143,0,5.692,2.247,5.692,5.018s-2.549,5.019-5.692,5.019-5.692-2.247-5.692-5.019,2.549-5.018,5.692-5.018" transform="translate(-118.339 -18.003)" fill="#fff"/>
    <path id="Path_542" data-name="Path 542" d="M82.883,35.137A9.594,9.594,0,0,0,77.038,37.2v-7.21H72.876s-.031,14.211-.031,14.445c0,5.137,4.494,9.3,10.038,9.3s10.037-4.166,10.037-9.3-4.494-9.3-10.037-9.3m0,14.32c-3.144,0-5.692-2.247-5.692-5.018s2.549-5.019,5.692-5.019,5.692,2.247,5.692,5.019-2.549,5.018-5.692,5.018" transform="translate(-33.241 -13.687)" fill="#fff"/>
    <path id="Path_543" data-name="Path 543" d="M131.131,50.288H118.052a3.327,3.327,0,0,1-.558-1.611A3.713,3.713,0,0,1,118.052,47h8.554s-1.053-3.409-5.516-3.409a5.433,5.433,0,0,0-5.7,5.208c0,1.8,1.118,4.925,5.7,5.083,3.6.123,4.339-1.86,4.339-1.86l5.283-.047a10.532,10.532,0,0,1-9.5,6.039c-5.547,0-10.044-4.2-10.044-9.381s4.5-9.382,10.044-9.382,10.044,4.2,10.044,9.382a10.1,10.1,0,0,1-.156,1.658" transform="translate(-50.728 -17.913)" fill="#fff"/>
    <path id="Path_544" data-name="Path 544" d="M160.123,43.773V39.434s-9.112-1.116-9.112,6.26c0,6.756-.062,11.777-.062,11.777h4.464V46.563s-.5-3.6,4.711-2.79" transform="translate(-68.881 -17.968)" fill="#fff"/>
    <path id="Path_545" data-name="Path 545" d="M174.309,33.3h-4.365V49.749S169.785,55.07,175,55.07c2.768,0,3.671-.745,3.671-.745v-4.1a4.049,4.049,0,0,1-2.5.586c-1.81,0-1.863-.851-1.863-1.438V40.913h4.044V36.762h-4.044Z" transform="translate(-77.55 -15.197)" fill="#fff"/>
    <path id="Path_546" data-name="Path 546" d="M192.1,39.566h-4.151V52.339s-.372,5.643,7.131,5.643a7.006,7.006,0,0,0,3.885-.959v2.555a2.65,2.65,0,0,1-2.927,2.288A11.064,11.064,0,0,1,192,61.122v3.831a12.97,12.97,0,0,0,4.738.693c3.14,0,6.546-2.182,6.6-6.067s0-19.905,0-19.905h-4.311V51.754s.213,2.022-3.565,2.022c-3.565,0-3.353-2.075-3.353-2.075Z" transform="translate(-85.766 -18.055)" fill="#fff"/>
    <path id="Path_547" data-name="Path 547" d="M306.99,39.7c-2.17,0-8.3.893-8.3,5.747v12.2h4.15V46.21s.257-2.362,3.959-2.362,3.641,2.3,3.641,2.3v11.43h4.214V45.635c0-.638-.383-5.938-7.663-5.938" transform="translate(-136.299 -18.115)" fill="#fff"/>
    <path id="Path_548" data-name="Path 548" d="M242.86,39.666a7.911,7.911,0,0,0,1.215-3.7,6.356,6.356,0,0,0-6.578-6.13h-6.514V53.075h7.791s7.025-.064,7.025-6.9c0-5.045-2.939-6.513-2.939-6.513m-7.6-5.428h1.98a2.125,2.125,0,0,1,2.33,2.139,2,2,0,0,1-2.139,2.138h-2.171Zm3.12,14.545h-3.12V42.6h2.845s3.349-.185,3.349,3.089a2.872,2.872,0,0,1-3.074,3.09" transform="translate(-105.403 -13.613)" fill="#fff"/>
  </g>
</svg>
