<svg xmlns="http://www.w3.org/2000/svg" xmlns:xlink="http://www.w3.org/1999/xlink" width="21.494" height="22" viewBox="0 0 21.494 22">
  <defs>
    <clipPath id="clip-path">
      <rect id="Rectangle_55" data-name="Rectangle 55" width="21.494" height="22" fill="#fff"/>
    </clipPath>
  </defs>
  <g id="Equal_Housing" data-name="Equal Housing" transform="translate(-51.988)">
    <path id="Path_767" data-name="Path 767" d="M7.148,11.373h7.236V9.6H7.148Zm0-2.637h7.236V6.965H7.148ZM3.875,6l6.993-3.824L17.708,6v7.194H3.875Zm6.993-6L0,5.768V7.851H1.664v7.167H19.8V7.851h1.695V5.824Z" transform="translate(51.988)" fill="#fff"/>
    <g id="Group_245" data-name="Group 245" transform="translate(51.988)" clip-path="url(#clip-path)">
      <path id="Path_768" data-name="Path 768" d="M12.574,22.676H11.3V25.1h1.241c1,0,1.574-.214,1.574-1.164,0-.981-.636-1.256-1.544-1.256m-.061,1.9h-.544V23.2h.605a.741.741,0,0,1,.817.734c0,.551-.362.643-.878.643m7.454-.489c.453-.062.665-.245.665-.643,0-.551-.272-.766-.938-.766H17.939V25.1H18.6v-1.01h.636l.7,1.01h.727Zm-.4-.518H18.6V23.2h1c.271,0,.392.031.392.184,0,.183-.089.183-.422.183M7.654,22.676H8.41l1.272,1.5v-1.5h.636V25.1H9.561L8.289,23.627V25.1H7.654Zm-6.243,0h.666v1.869l1.727.031v.52H1.411ZM4.489,25.1v-2.42H6.819V23.2H5.184v.367H6.546v.491H5.184v.52H6.819v.52Zm10.375-2.42h2.3V23.2H15.53v.367h1.393v.491H15.53v.52h1.635v.489l-2.3.03ZM7.276,19.908H6.762l-.606,2.173H6.6l.133-.49h.544l.136.49h.471ZM6.824,21.23l.183-.857.211.857Zm-2.711.546a1.1,1.1,0,0,0,.121-.581v-.459c0-.52-.121-.889-.727-.889-.546,0-.727.307-.727.857v.581c0,.734.425.766,1.665.766l.031-.153Zm-.335-.49c0,.4-.031.49-.273.49-.212,0-.272-.122-.272-.519v-.522c0-.4.029-.52.3-.52.21,0,.241.06.241.489Zm11.356.214.363-.062c.06.214.181.337.362.337s.273-.061.273-.214c0-.4-.968-.551-.968-1.163,0-.369.3-.553.666-.553a.611.611,0,0,1,.7.553l-.3.122c-.091-.184-.181-.306-.364-.306-.119,0-.241.06-.241.183,0,.337.97.581.97,1.1a.714.714,0,0,1-.758.612c-.483,0-.7-.275-.7-.612m-2.556-1.655c-.455,0-.727.246-.727.828v.7c0,.52.152.734.727.734s.727-.244.727-.826v-.674c0-.55-.153-.766-.727-.766m.271,1.441c0,.367-.09.49-.273.49-.243,0-.273-.154-.273-.46v-.673c0-.276.03-.458.273-.458s.273.214.273.458Zm6.332,0v-.643c0-.458.12-.8.725-.8a.612.612,0,0,1,.7.583l-.3.122c-.031-.214-.152-.365-.364-.365-.3,0-.333.244-.333.61v.491c0,.306.03.521.333.521.151,0,.212-.092.212-.277v-.244h-.212V20.95h.636v.7c0,.238-.137.459-.606.459-.6,0-.786-.183-.786-.826m-5.688-1.377h.455v1.225c0,.459.03.642.273.642s.273-.122.273-.612V19.908h.423v1.317c0,.642-.178.907-.663.907-.636,0-.76-.235-.76-.969Zm4.045,0h.575l.484,1.348V19.908h.363v2.173h-.544l-.514-1.47v1.47h-.364Zm-12.869,0h.423v1.225c0,.489.03.611.273.611.213,0,.273-.122.273-.549V19.908h.425v1.255c0,.612-.031.949-.727.949-.605,0-.666-.275-.666-.887Zm5.505,0H10.6v.826h.516v-.826h.424v2.173h-.424V21.1H10.6v.98h-.424Zm-8.795,0H2.471v.336H1.805v.581h.606v.307H1.805v.612h.666v.337H1.38Zm6.693,0h.364v1.836h.636v.337h-1Zm8.735,0H17.2v2.173h-.393Z" transform="translate(-0.215 -3.097)" fill="#fff" fill-rule="evenodd"/>
    </g>
  </g>
</svg>
