<svg id="FDIC" xmlns="http://www.w3.org/2000/svg" xmlns:xlink="http://www.w3.org/1999/xlink" width="36.989" height="22" viewBox="0 0 36.989 22">
  <defs>
    <clipPath id="clip-path">
      <rect id="Rectangle_57" data-name="Rectangle 57" width="36.989" height="22" fill="#fff"/>
    </clipPath>
  </defs>
  <path id="Path_769" data-name="Path 769" d="M37.868,14.587l-.051.118h.041v.379h.108v-.5Z" transform="translate(-5.627 -1.965)" fill="#fff"/>
  <g id="Group_247" data-name="Group 247" clip-path="url(#clip-path)">
    <path id="Path_770" data-name="Path 770" d="M38.217,14.716a.175.175,0,0,0,.184.161.193.193,0,0,0,.109-.032c-.056.145-.207.087-.24.074l-.04.08a.253.253,0,0,0,.379-.233.211.211,0,0,0-.209-.213v.079c.051,0,.1.037.1.083a.1.1,0,0,1-.1.084.084.084,0,1,1,0-.168v-.079a.175.175,0,0,0-.184.162" transform="translate(-5.046 -1.922)" fill="#fff"/>
    <path id="Path_771" data-name="Path 771" d="M38.975,15.037a.23.23,0,0,1-.17-.062l.056-.059a.246.246,0,0,0,.1.045c.031,0,.089-.015.089-.063,0-.024-.023-.062-.113-.051V14.77c.095.009.119-.025.119-.057s-.035-.057-.078-.057a.131.131,0,0,0-.1.051l-.063-.064a.181.181,0,0,1,.154-.073.149.149,0,0,1,.165.131.116.116,0,0,1-.049.1.115.115,0,0,1,.053.1.152.152,0,0,1-.168.14" transform="translate(-5.124 -1.924)" fill="#fff"/>
    <path id="Path_772" data-name="Path 772" d="M39.513,15.037a.232.232,0,0,1-.171-.062l.057-.059a.238.238,0,0,0,.1.045c.032,0,.09-.015.09-.063,0-.024-.022-.062-.114-.051V14.77c.095.009.119-.025.119-.057s-.036-.057-.079-.057a.128.128,0,0,0-.094.051l-.065-.064a.186.186,0,0,1,.155-.073.151.151,0,0,1,.167.131.122.122,0,0,1-.049.1.121.121,0,0,1,.052.1.154.154,0,0,1-.17.14" transform="translate(-5.195 -1.924)" fill="#fff"/>
    <path id="Path_773" data-name="Path 773" d="M37.907,18.28v-.247H37.86v.3h.161v-.115H38.1v.115h.159v-.3h.073c.09,0,.09.045.148.045s.059-.045.091-.045.042.056.082.056.051-.056.083-.056.046.045.09.045.076-.045.163-.045a.07.07,0,0,1,.08.078.175.175,0,1,0,.35,0v-.252a.175.175,0,0,0-.174-.175v.06a.1.1,0,0,1,.105.105.213.213,0,0,1-.037.135.214.214,0,0,1,.037.136.1.1,0,1,1-.209,0,.205.205,0,0,1,.04-.136.2.2,0,0,1-.04-.135.1.1,0,0,1,.1-.105v-.06a.174.174,0,0,0-.175.175.071.071,0,0,1-.08.08c-.088,0-.105-.047-.163-.047s-.059.043-.09.043-.042-.055-.083-.055-.051.055-.082.055-.047-.043-.091-.043-.058.047-.148.047h-.549v.094h.429v.247h-.065v-.114h-.175v.114Z" transform="translate(-4.989 -2.335)" fill="#fff"/>
    <path id="Path_774" data-name="Path 774" d="M40.713,16.408a2.225,2.225,0,0,1-2.225,2.223v-.11a2.113,2.113,0,1,0-2.113-2.113,2.115,2.115,0,0,0,2.113,2.113v.11a2.224,2.224,0,1,1,2.225-2.223" transform="translate(-4.789 -1.873)" fill="#fff"/>
    <path id="Path_775" data-name="Path 775" d="M40.756,16.391a2.286,2.286,0,1,0-2.286,2.284v.056a2.34,2.34,0,1,1,2.34-2.34,2.34,2.34,0,0,1-2.34,2.34v-.056a2.286,2.286,0,0,0,2.286-2.284" transform="translate(-4.771 -1.855)" fill="#fff"/>
    <path id="Path_776" data-name="Path 776" d="M41.507,16.246a3.18,3.18,0,0,1-3.181,3.18v.108a3.29,3.29,0,1,0-3.29-3.289,3.289,3.289,0,0,0,3.29,3.289v-.108a3.181,3.181,0,1,1,3.181-3.18" transform="translate(-4.626 -1.711)" fill="#fff"/>
    <path id="Path_777" data-name="Path 777" d="M41.465,16.273a3.112,3.112,0,1,0-3.112,3.111v-.056a3.056,3.056,0,1,1,3.056-3.055,3.056,3.056,0,0,1-3.056,3.055v.056a3.111,3.111,0,0,0,3.112-3.111" transform="translate(-4.653 -1.737)" fill="#fff"/>
    <path id="Path_778" data-name="Path 778" d="M38.128,13.441l.253.435a.63.63,0,0,0-.112.019l-.047-.078-.137.031.01-.108.074-.018L38.1,13.61l-.01.13-.01.108-.008.089c-.039.01-.075.021-.11.032l.042-.5Z" transform="translate(-5.013 -1.775)" fill="#fff"/>
    <path id="Path_779" data-name="Path 779" d="M41.14,14.415,41,14.541a.044.044,0,0,0-.005.062l.105.121-.062.053-.133-.151-.076.066.163.186a.053.053,0,0,0,.077,0l.143-.12a.044.044,0,0,0,0-.062l-.106-.121.062-.053.135.154.079-.066-.168-.19a.055.055,0,0,0-.076-.007" transform="translate(-5.391 -1.902)" fill="#fff"/>
    <path id="Path_780" data-name="Path 780" d="M36.212,15.444c-.015.03-.027.06-.043.089l-.422-.209.132-.266.092.046-.087.176.072.036.075-.151.092.048-.073.149Z" transform="translate(-4.72 -1.988)" fill="#fff"/>
    <path id="Path_781" data-name="Path 781" d="M40.964,14.173a.064.064,0,0,1,.009.09l-.221.267a.063.063,0,0,1-.089.009c-.04-.032-.076-.068-.088-.076s-.045-.034-.083-.063a.065.065,0,0,1-.009-.091l.218-.267a.063.063,0,0,1,.091-.008l-.035.1-.171.209.115.093.171-.207-.115-.095.035-.1Z" transform="translate(-5.344 -1.851)" fill="#fff"/>
    <path id="Path_782" data-name="Path 782" d="M37.575,13.911l-.092.04-.042-.094.1-.046a.026.026,0,0,0,.013-.034l-.013-.028a.026.026,0,0,0-.034-.012l-.1.046.034.074.042.094.075.167c-.037.016-.068.03-.1.046l-.192-.431.277-.127a.045.045,0,0,1,.06.024l.063.141a.042.042,0,0,1-.02.055l0,0,0,0a.039.039,0,0,1,.055.021l.056.122A.039.039,0,0,0,37.8,14l0,.007-.109.045a.052.052,0,0,1-.03-.031c-.007-.016-.03-.074-.039-.1a.037.037,0,0,0-.049-.017" transform="translate(-4.921 -1.796)" fill="#fff"/>
    <path id="Path_783" data-name="Path 783" d="M38.844,13.846l0-.1-.194.007-.011-.37-.1,0,.016.47a2.779,2.779,0,0,1,.291-.009" transform="translate(-5.089 -1.767)" fill="#fff"/>
    <path id="Path_784" data-name="Path 784" d="M36.463,14.857l.083.061a2.565,2.565,0,0,0-.17.233l-.385-.273.174-.242.082.061-.113.158.066.048.1-.136.082.062-.1.135.069.049Z" transform="translate(-4.753 -1.933)" fill="#fff"/>
    <path id="Path_785" data-name="Path 785" d="M36.652,14.788l-.336-.339.044-.044.1.044.19.19.1-.1-.189-.19-.1.1-.1-.044.158-.157a.066.066,0,0,1,.091,0l.243.247a.064.064,0,0,1,0,.091c-.036.036-.075.069-.084.077s-.082.089-.116.124" transform="translate(-4.795 -1.879)" fill="#fff"/>
    <path id="Path_786" data-name="Path 786" d="M37.233,14.177l.056.087c-.078.048-.157.1-.239.161l-.267-.387.245-.17.057.087-.161.111.046.066.138-.094.056.086-.135.094.045.069Z" transform="translate(-4.857 -1.831)" fill="#fff"/>
    <path id="Path_787" data-name="Path 787" d="M39.129,13.858l.082-.472.063.013.019.106-.048.265.146.025.046-.266-.144-.024-.019-.106.219.038a.065.065,0,0,1,.051.075l-.062.34a.065.065,0,0,1-.074.053c-.049-.01-.1-.023-.112-.024s-.12-.018-.168-.023" transform="translate(-5.167 -1.767)" fill="#fff"/>
    <path id="Path_788" data-name="Path 788" d="M39.964,13.977l-.037.1a2.729,2.729,0,0,0-.27-.1l.164-.443.28.105-.038.1-.182-.068-.03.076.157.058-.038.1-.155-.057-.03.078Z" transform="translate(-5.237 -1.786)" fill="#fff"/>
    <path id="Path_789" data-name="Path 789" d="M40.233,14.015l.052-.091.1.056a.03.03,0,0,0,.036-.01l.013-.029a.024.024,0,0,0-.009-.034l-.1-.055-.038.071-.052.091-.091.161c-.036-.02-.067-.036-.1-.05l.237-.419.272.152a.047.047,0,0,1,.016.064l-.1.178a.042.042,0,0,1-.056.016Z" transform="translate(-5.288 -1.81)" fill="#fff"/>
    <path id="Path_790" data-name="Path 790" d="M41.141,15.075l.39-.263.057.083-.391.262-.028-.042-.029-.041" transform="translate(-5.433 -1.956)" fill="#fff"/>
    <path id="Path_791" data-name="Path 791" d="M41.691,15.276l-.328.168c-.008-.014-.016-.03-.023-.044s-.016-.029-.023-.043l.328-.169L41.6,15.1l.09-.046.139.273-.09.045Z" transform="translate(-5.456 -1.987)" fill="#fff"/>
    <path id="Path_792" data-name="Path 792" d="M35.76,15.784l0,.126.118.049-.123.035-.009.127-.07-.105-.123.032.077-.1-.067-.108.119.043Z" transform="translate(-4.694 -2.084)" fill="#fff"/>
    <path id="Path_793" data-name="Path 793" d="M41.844,15.784l0,.126-.119.049.123.035.008.127.072-.105.123.032-.077-.1.065-.108-.118.043Z" transform="translate(-5.51 -2.084)" fill="#fff"/>
    <path id="Path_794" data-name="Path 794" d="M37.534,19.661l-.013.026-.133-.062.11-.245.135.062-.012.026.091.042.028-.063a.063.063,0,0,0-.031-.085c-.046-.023-.092-.04-.1-.046s-.053-.024-.1-.046a.063.063,0,0,0-.085.032l-.143.315a.065.065,0,0,0,.032.086l.2.091a.064.064,0,0,0,.084-.031l.028-.06Z" transform="translate(-4.922 -2.543)" fill="#fff"/>
    <path id="Path_795" data-name="Path 795" d="M35.933,16.607l-.469-.029.006-.1.47.03c0,.016,0,.035-.005.049s0,.034,0,.049" transform="translate(-4.683 -2.176)" fill="#fff"/>
    <path id="Path_796" data-name="Path 796" d="M35.923,17.3l-.184.048a.045.045,0,0,0-.03.054l.041.154-.081.02-.053-.2-.1.025.063.239a.056.056,0,0,0,.069.04l.18-.045a.042.042,0,0,0,.032-.051l-.043-.157.081-.019.052.2.1-.025-.065-.246a.053.053,0,0,0-.066-.039" transform="translate(-4.69 -2.284)" fill="#fff"/>
    <path id="Path_797" data-name="Path 797" d="M35.675,17.071l.273-.026c0,.015,0,.032,0,.049a.453.453,0,0,0,.006.049l-.469.045-.01-.1.276-.211-.294.01,0-.1.471-.014v.051a.472.472,0,0,0,0,.049Z" transform="translate(-4.682 -2.215)" fill="#fff"/>
    <path id="Path_798" data-name="Path 798" d="M35.794,18.159a.064.064,0,0,0,.084.034l.374-.161-.039-.094-.337.147-.06-.135.338-.146-.042-.095-.372.163a.066.066,0,0,0-.035.086Z" transform="translate(-4.714 -2.338)" fill="#fff"/>
    <path id="Path_799" data-name="Path 799" d="M36.361,19.027l.082-.044.1-.049.113-.062-.057.114-.056-.052-.1.049.1.1-.043.082.082.08.227-.444-.089-.085-.441.233Z" transform="translate(-4.791 -2.471)" fill="#fff"/>
    <path id="Path_800" data-name="Path 800" d="M36.516,18.452a.041.041,0,0,1-.011.061l-.128.089a.043.043,0,0,1-.059-.011h0l0,0a.04.04,0,0,1-.01.057l-.111.076a.038.038,0,0,0-.021.045l0,0-.069-.1a.066.066,0,0,1,.028-.037l.087-.055a.035.035,0,0,0,.01-.05l-.058-.084.085-.059.063.092a.026.026,0,0,0,.036.006l.024-.017a.025.025,0,0,0,.008-.035l-.064-.093-.067.047-.085.059-.15.1-.061-.088.388-.267a2.6,2.6,0,0,0,.173.253" transform="translate(-4.748 -2.403)" fill="#fff"/>
    <path id="Path_801" data-name="Path 801" d="M38.129,19.6l.027-.1c-.092-.021-.181-.047-.279-.078l-.131.454.286.082.026-.1-.187-.055.023-.079.161.047.028-.1-.159-.046.021-.081Z" transform="translate(-4.984 -2.565)" fill="#fff"/>
    <path id="Path_802" data-name="Path 802" d="M37.085,19.34l.151-.227c.014.01.028.019.043.029l.041.028-.262.391-.083-.057.012-.346-.18.233-.079-.062.286-.372c.015.01.026.022.039.031a.492.492,0,0,1,.041.03Z" transform="translate(-4.85 -2.503)" fill="#fff"/>
    <path id="Path_803" data-name="Path 803" d="M39.116,20.038a.066.066,0,0,1-.073-.055L39,19.641a.064.064,0,0,1,.055-.074l.115-.012.105-.017a.064.064,0,0,1,.073.054l.047.343a.064.064,0,0,1-.055.073l-.051-.095-.037-.266-.147.02.037.266.147-.02.051.095Z" transform="translate(-5.149 -2.579)" fill="#fff"/>
    <path id="Path_804" data-name="Path 804" d="M40.276,19.157a.046.046,0,0,1,.062.018l.1.183a.042.042,0,0,1-.019.056l-.181.1-.05-.092.1-.055a.024.024,0,0,0,.01-.034l-.015-.029a.025.025,0,0,0-.035-.011l-.1.056.038.073.05.092.089.163-.1.051L40,19.3c.063-.03.2-.1.275-.148" transform="translate(-5.282 -2.529)" fill="#fff"/>
    <path id="Path_805" data-name="Path 805" d="M41.828,18.082l-.338-.147-.042.095-.094-.04a2.162,2.162,0,0,0,.122-.281l.093.041-.039.095.339.146Z" transform="translate(-5.461 -2.338)" fill="#fff"/>
    <path id="Path_806" data-name="Path 806" d="M38.758,19.922v.029l-.148,0,.01-.269.148.006v.028l.1.006,0-.071a.066.066,0,0,0-.062-.068l-.114,0c-.012,0-.058,0-.106-.006a.063.063,0,0,0-.066.062l-.014.345a.064.064,0,0,0,.061.068l.222.009a.064.064,0,0,0,.066-.061l0-.067Z" transform="translate(-5.085 -2.584)" fill="#fff"/>
    <path id="Path_807" data-name="Path 807" d="M39.787,19.4a.046.046,0,0,1,.056.03l.045.148a.04.04,0,0,1-.027.052l0,0,0,0a.041.041,0,0,1,.053.026c.008.031.036.121.04.129a.036.036,0,0,0,.036.032l0,.005-.114.036a.061.061,0,0,1-.028-.036c0-.016-.018-.077-.026-.1a.036.036,0,0,0-.046-.023l-.1.03-.03-.1.105-.034a.023.023,0,0,0,.016-.03l-.008-.03a.026.026,0,0,0-.033-.016l-.106.033.025.077.03.1.054.174-.1.032-.139-.451a2.031,2.031,0,0,0,.292-.09" transform="translate(-5.215 -2.561)" fill="#fff"/>
    <path id="Path_808" data-name="Path 808" d="M40.784,19.393a.063.063,0,0,1-.089-.01l-.218-.268a.064.064,0,0,1,.009-.091c.04-.032.082-.06.091-.068s.045-.039.081-.071a.062.062,0,0,1,.089.01l.219.267a.064.064,0,0,1-.01.091l-.092-.056-.168-.208-.115.093.168.208.115-.093.092.056Z" transform="translate(-5.343 -2.492)" fill="#fff"/>
    <path id="Path_809" data-name="Path 809" d="M41.029,18.494a.047.047,0,0,1,.064,0l.115.1a.042.042,0,0,1,0,.058v0h0a.039.039,0,0,1,.057,0l.1.089a.038.038,0,0,0,.049.01l0,0-.079.089a.064.064,0,0,1-.042-.017c-.012-.01-.056-.056-.075-.072a.036.036,0,0,0-.052,0l-.067.076-.077-.069.073-.083a.026.026,0,0,0,0-.036l-.023-.022a.028.028,0,0,0-.036,0l-.075.084.063.054.077.069.135.121-.069.082-.352-.312a2.616,2.616,0,0,0,.2-.23" transform="translate(-5.391 -2.44)" fill="#fff"/>
    <path id="Path_810" data-name="Path 810" d="M41.584,18.576l-.06-.069-.072-.082-.083-.1.123.032-.04.065.072.082.074-.122.091.025.059-.1-.483-.123-.065.1.325.38Z" transform="translate(-5.44 -2.402)" fill="#fff"/>
    <path id="Path_811" data-name="Path 811" d="M41.555,17.51l.451.135-.03.1-.45-.135c0-.016.009-.033.015-.049l.013-.047" transform="translate(-5.484 -2.312)" fill="#fff"/>
    <path id="Path_812" data-name="Path 812" d="M41.932,16.558l-.273.011v-.053c0-.015,0-.032,0-.049l.47-.015,0,.1-.289.194.294.01,0,.1-.47-.016c0-.016,0-.033,0-.049v-.05Z" transform="translate(-5.501 -2.172)" fill="#fff"/>
    <path id="Path_813" data-name="Path 813" d="M42.074,17.362a.066.066,0,0,1-.073.054l-.344-.053a.066.066,0,0,1-.055-.074c.009-.05.02-.1.022-.113s.008-.057.012-.1a.062.062,0,0,1,.073-.053l.343.05a.062.062,0,0,1,.054.072L42,17.165l-.267-.041-.021.148.266.038L42,17.165l.105-.023Z" transform="translate(-5.493 -2.247)" fill="#fff"/>
    <path id="Path_814" data-name="Path 814" d="M38.009,15.613a.049.049,0,0,0,.049-.049.05.05,0,0,0-.1,0,.048.048,0,0,0,.05.049" transform="translate(-5.012 -2.048)" fill="#fff"/>
    <path id="Path_815" data-name="Path 815" d="M37.976,15.581l-.172.67h.043l.122-.473v.473h.048v-.473l.122.473H37.8a.206.206,0,0,0,.187.122.2.2,0,0,0,.185-.122l-.171-.67Z" transform="translate(-4.992 -2.057)" fill="#fff"/>
    <path id="Path_816" data-name="Path 816" d="M38.708,15.239l.082.035-.008.016c-.038,0-.047.071-.047.108a.053.053,0,0,0,.056.048,1.413,1.413,0,0,1,.189-.031c.088,0,.18.036.277.036a.456.456,0,0,0,.142-.027c.023,0,.073.01.073.045s-.049.046-.073.046a.456.456,0,0,0-.142-.027c-.1,0-.189.037-.277.037a1.315,1.315,0,0,1-.189-.034.055.055,0,0,0-.056.049c0,.021.044.062.044.062l-.071.107L38.64,15.6s.043-.042.043-.062a.055.055,0,0,0-.056-.049,1.251,1.251,0,0,1-.188.034c-.089,0-.181-.037-.278-.037a.471.471,0,0,0-.142.027c-.023,0-.071-.011-.071-.046s.049-.045.071-.045a.471.471,0,0,0,.142.027c.1,0,.189-.036.278-.036a1.345,1.345,0,0,1,.188.031.053.053,0,0,0,.056-.048c0-.037-.007-.108-.046-.108l-.007-.016Z" transform="translate(-5.011 -2.012)" fill="#fff"/>
    <path id="Path_817" data-name="Path 817" d="M39.627,15.613a.049.049,0,0,1-.05-.049.05.05,0,0,1,.05-.049.049.049,0,0,1,.049.049.049.049,0,0,1-.049.049" transform="translate(-5.226 -2.048)" fill="#fff"/>
    <path id="Path_818" data-name="Path 818" d="M39.617,15.581l.173.67h-.043l-.122-.473v.473h-.047v-.473l-.122.473h.334a.2.2,0,0,1-.374,0l.173-.67Z" transform="translate(-5.205 -2.057)" fill="#fff"/>
    <path id="Path_819" data-name="Path 819" d="M37.53,15.391a.045.045,0,1,0,0-.09.045.045,0,0,0,0,.09" transform="translate(-4.95 -2.02)" fill="#fff"/>
    <path id="Path_820" data-name="Path 820" d="M37.348,15.573a.047.047,0,0,0,.047-.047.046.046,0,0,0-.047-.044.044.044,0,0,0-.044.044.045.045,0,0,0,.044.047" transform="translate(-4.926 -2.044)" fill="#fff"/>
    <path id="Path_821" data-name="Path 821" d="M37.713,15.573a.046.046,0,0,0,.045-.047.046.046,0,1,0-.045.047" transform="translate(-4.974 -2.044)" fill="#fff"/>
    <path id="Path_822" data-name="Path 822" d="M37.53,15.755a.046.046,0,1,0,0-.091.046.046,0,0,0,0,.091" transform="translate(-4.95 -2.068)" fill="#fff"/>
    <path id="Path_823" data-name="Path 823" d="M37.888,15.391a.045.045,0,1,0-.045-.046.044.044,0,0,0,.045.046" transform="translate(-4.997 -2.02)" fill="#fff"/>
    <path id="Path_824" data-name="Path 824" d="M39.755,15.391a.045.045,0,1,0,0-.09.045.045,0,1,0,0,.09" transform="translate(-5.243 -2.02)" fill="#fff"/>
    <path id="Path_825" data-name="Path 825" d="M40.153,15.391a.045.045,0,1,0-.046-.046.045.045,0,0,0,.046.046" transform="translate(-5.296 -2.02)" fill="#fff"/>
    <path id="Path_826" data-name="Path 826" d="M37.888,15.749a.044.044,0,0,0,.046-.045.046.046,0,1,0-.091,0,.045.045,0,0,0,.045.045" transform="translate(-4.997 -2.067)" fill="#fff"/>
    <path id="Path_827" data-name="Path 827" d="M38.268,16.111a.045.045,0,0,0,.045-.045.045.045,0,0,0-.045-.045.046.046,0,0,0-.046.045.046.046,0,0,0,.046.045" transform="translate(-5.047 -2.115)" fill="#fff"/>
    <path id="Path_828" data-name="Path 828" d="M38.468,16.28a.045.045,0,0,0,.046-.044.046.046,0,0,0-.093,0,.045.045,0,0,0,.047.044" transform="translate(-5.073 -2.138)" fill="#fff"/>
    <path id="Path_829" data-name="Path 829" d="M37.708,15.929a.044.044,0,0,0,.044-.044.046.046,0,0,0-.044-.046.046.046,0,0,0-.047.046.045.045,0,0,0,.047.044" transform="translate(-4.973 -2.091)" fill="#fff"/>
    <path id="Path_830" data-name="Path 830" d="M37.53,16.105a.046.046,0,1,0-.044-.045.046.046,0,0,0,.044.045" transform="translate(-4.95 -2.114)" fill="#fff"/>
    <path id="Path_831" data-name="Path 831" d="M37.709,16.285a.046.046,0,1,0,0-.091.046.046,0,1,0,0,.091" transform="translate(-4.973 -2.138)" fill="#fff"/>
    <path id="Path_832" data-name="Path 832" d="M38.082,16.656a.045.045,0,1,0,0-.09.045.045,0,1,0,0,.09" transform="translate(-5.023 -2.187)" fill="#fff"/>
    <path id="Path_833" data-name="Path 833" d="M37.53,16.462a.045.045,0,1,0-.044-.044.045.045,0,0,0,.044.044" transform="translate(-4.95 -2.162)" fill="#fff"/>
    <path id="Path_834" data-name="Path 834" d="M37.53,16.838a.045.045,0,0,0,.046-.047.045.045,0,0,0-.09,0,.045.045,0,0,0,.044.047" transform="translate(-4.95 -2.211)" fill="#fff"/>
    <path id="Path_835" data-name="Path 835" d="M37.53,17.194a.045.045,0,0,0,.046-.045.045.045,0,1,0-.09,0,.044.044,0,0,0,.044.045" transform="translate(-4.95 -2.258)" fill="#fff"/>
    <path id="Path_836" data-name="Path 836" d="M37.719,17.007a.047.047,0,0,0,.046-.046.046.046,0,0,0-.093,0,.047.047,0,0,0,.047.046" transform="translate(-4.974 -2.233)" fill="#fff"/>
    <path id="Path_837" data-name="Path 837" d="M37.9,16.838a.046.046,0,0,0,.046-.047.046.046,0,0,0-.092,0,.046.046,0,0,0,.046.047" transform="translate(-4.999 -2.211)" fill="#fff"/>
    <path id="Path_838" data-name="Path 838" d="M37.719,16.65a.047.047,0,0,0,.046-.047.047.047,0,0,0-.093,0,.047.047,0,0,0,.047.047" transform="translate(-4.974 -2.186)" fill="#fff"/>
    <path id="Path_839" data-name="Path 839" d="M37.353,17.373a.045.045,0,0,0,0-.09.045.045,0,1,0,0,.09" transform="translate(-4.926 -2.282)" fill="#fff"/>
    <path id="Path_840" data-name="Path 840" d="M38.268,15.749a.045.045,0,0,0,.045-.045.046.046,0,0,0-.045-.047.047.047,0,0,0-.046.047.046.046,0,0,0,.046.045" transform="translate(-5.047 -2.067)" fill="#fff"/>
    <path id="Path_841" data-name="Path 841" d="M38.45,15.929a.045.045,0,0,0,.046-.044.046.046,0,0,0-.046-.046.047.047,0,0,0-.046.046.045.045,0,0,0,.046.044" transform="translate(-5.071 -2.091)" fill="#fff"/>
    <path id="Path_842" data-name="Path 842" d="M38.643,16.1a.045.045,0,0,0,.045-.044.046.046,0,0,0-.045-.047.046.046,0,0,0-.045.047.045.045,0,0,0,.045.044" transform="translate(-5.097 -2.114)" fill="#fff"/>
    <path id="Path_843" data-name="Path 843" d="M38.643,15.749a.045.045,0,0,0,.045-.045.046.046,0,0,0-.045-.047.046.046,0,0,0-.045.047.045.045,0,0,0,.045.045" transform="translate(-5.097 -2.067)" fill="#fff"/>
    <path id="Path_844" data-name="Path 844" d="M38.824,15.929a.046.046,0,0,0,.047-.044.046.046,0,0,0-.093,0,.045.045,0,0,0,.046.044" transform="translate(-5.121 -2.091)" fill="#fff"/>
    <path id="Path_845" data-name="Path 845" d="M39.006,15.749a.046.046,0,0,0,.046-.045.046.046,0,1,0-.091,0,.045.045,0,0,0,.045.045" transform="translate(-5.145 -2.067)" fill="#fff"/>
    <path id="Path_846" data-name="Path 846" d="M39.217,15.935a.045.045,0,0,0,.045-.045.045.045,0,1,0-.09,0,.045.045,0,0,0,.045.045" transform="translate(-5.173 -2.092)" fill="#fff"/>
    <path id="Path_847" data-name="Path 847" d="M39.393,15.755a.046.046,0,1,0-.046-.046.045.045,0,0,0,.046.046" transform="translate(-5.196 -2.068)" fill="#fff"/>
    <path id="Path_848" data-name="Path 848" d="M39.03,16.111a.045.045,0,0,0,.044-.045.045.045,0,1,0-.09,0,.045.045,0,0,0,.046.045" transform="translate(-5.148 -2.115)" fill="#fff"/>
    <path id="Path_849" data-name="Path 849" d="M39.222,16.3a.046.046,0,0,0,.045-.046.045.045,0,0,0-.045-.044.046.046,0,0,0-.046.044.047.047,0,0,0,.046.046" transform="translate(-5.173 -2.141)" fill="#fff"/>
    <path id="Path_850" data-name="Path 850" d="M39.407,16.12a.046.046,0,0,0,.046-.045.046.046,0,0,0-.092,0,.046.046,0,0,0,.046.045" transform="translate(-5.198 -2.116)" fill="#fff"/>
    <path id="Path_851" data-name="Path 851" d="M39.951,15.588A.046.046,0,0,0,40,15.541a.045.045,0,0,0-.046-.043.046.046,0,0,0-.047.043.047.047,0,0,0,.047.047" transform="translate(-5.269 -2.046)" fill="#fff"/>
    <path id="Path_852" data-name="Path 852" d="M40.325,15.564a.045.045,0,1,0,0-.09.045.045,0,0,0,0,.09" transform="translate(-5.319 -2.043)" fill="#fff"/>
    <path id="Path_853" data-name="Path 853" d="M40.136,15.755a.046.046,0,1,0-.046-.046.046.046,0,0,0,.046.046" transform="translate(-5.294 -2.068)" fill="#fff"/>
    <path id="Path_854" data-name="Path 854" d="M39.948,15.94a.044.044,0,0,0,.045-.044.045.045,0,0,0-.045-.045.046.046,0,0,0-.046.045.045.045,0,0,0,.046.044" transform="translate(-5.269 -2.093)" fill="#fff"/>
    <path id="Path_855" data-name="Path 855" d="M39.948,16.3a.044.044,0,0,0,.045-.046.045.045,0,0,0-.045-.044.045.045,0,0,0-.046.044.045.045,0,0,0,.046.046" transform="translate(-5.269 -2.141)" fill="#fff"/>
    <path id="Path_856" data-name="Path 856" d="M40.136,16.129a.046.046,0,0,0,.046-.045.046.046,0,0,0-.046-.045.047.047,0,0,0-.046.045.046.046,0,0,0,.046.045" transform="translate(-5.294 -2.118)" fill="#fff"/>
    <path id="Path_857" data-name="Path 857" d="M40.177,16.493a.046.046,0,1,0-.046-.047.047.047,0,0,0,.046.047" transform="translate(-5.299 -2.165)" fill="#fff"/>
    <path id="Path_858" data-name="Path 858" d="M39.982,16.673a.046.046,0,1,0-.045-.046.045.045,0,0,0,.045.046" transform="translate(-5.274 -2.189)" fill="#fff"/>
    <path id="Path_859" data-name="Path 859" d="M39.6,16.667a.045.045,0,1,0,0-.09.045.045,0,0,0,0,.09" transform="translate(-5.223 -2.189)" fill="#fff"/>
    <path id="Path_860" data-name="Path 860" d="M39.8,16.861a.046.046,0,0,0,.045-.047.045.045,0,0,0-.045-.044.046.046,0,0,0-.047.044.047.047,0,0,0,.047.047" transform="translate(-5.249 -2.214)" fill="#fff"/>
    <path id="Path_861" data-name="Path 861" d="M39.96,17.024a.046.046,0,0,0,.046-.046.045.045,0,0,0-.046-.044.044.044,0,0,0-.045.044.045.045,0,0,0,.045.046" transform="translate(-5.271 -2.236)" fill="#fff"/>
    <path id="Path_862" data-name="Path 862" d="M40.165,17.206a.045.045,0,0,0,.045-.045.044.044,0,0,0-.045-.045.045.045,0,0,0-.046.045.046.046,0,0,0,.046.045" transform="translate(-5.298 -2.26)" fill="#fff"/>
    <path id="Path_863" data-name="Path 863" d="M37.694,18.183a.046.046,0,1,0,0-.091.046.046,0,0,0,0,.091" transform="translate(-4.972 -2.389)" fill="#fff"/>
    <path id="Path_864" data-name="Path 864" d="M38.069,17.809a.046.046,0,0,0,.046-.046.046.046,0,0,0-.092,0,.046.046,0,0,0,.046.046" transform="translate(-5.021 -2.339)" fill="#fff"/>
    <path id="Path_865" data-name="Path 865" d="M38.248,17.63a.046.046,0,0,0,.046-.045.047.047,0,0,0-.046-.046.046.046,0,0,0-.045.046.045.045,0,0,0,.045.045" transform="translate(-5.045 -2.316)" fill="#fff"/>
    <path id="Path_866" data-name="Path 866" d="M38.438,17.44a.046.046,0,0,0,.046-.047.046.046,0,0,0-.092,0,.046.046,0,0,0,.046.047" transform="translate(-5.07 -2.291)" fill="#fff"/>
    <path id="Path_867" data-name="Path 867" d="M38.622,17.256a.046.046,0,1,0,0-.092.046.046,0,0,0,0,.092" transform="translate(-5.094 -2.266)" fill="#fff"/>
    <path id="Path_868" data-name="Path 868" d="M38.806,17.072a.046.046,0,0,0,.045-.047.045.045,0,0,0-.045-.044.045.045,0,0,0-.045.044.047.047,0,0,0,.045.047" transform="translate(-5.118 -2.242)" fill="#fff"/>
    <path id="Path_869" data-name="Path 869" d="M39,17.261a.045.045,0,0,0,.046-.044.046.046,0,1,0-.092,0,.045.045,0,0,0,.046.044" transform="translate(-5.143 -2.267)" fill="#fff"/>
    <path id="Path_870" data-name="Path 870" d="M39.2,17.437a.046.046,0,1,0,0-.091.046.046,0,0,0,0,.091" transform="translate(-5.17 -2.29)" fill="#fff"/>
    <path id="Path_871" data-name="Path 871" d="M39.377,17.619a.048.048,0,0,0,.047-.046.047.047,0,0,0-.047-.045.045.045,0,0,0-.045.045.046.046,0,0,0,.045.046" transform="translate(-5.194 -2.314)" fill="#fff"/>
    <path id="Path_872" data-name="Path 872" d="M39,17.624a.045.045,0,0,0,.046-.044.046.046,0,0,0-.092,0,.045.045,0,0,0,.046.044" transform="translate(-5.143 -2.315)" fill="#fff"/>
    <path id="Path_873" data-name="Path 873" d="M38.816,17.442a.045.045,0,0,0,.045-.044.047.047,0,0,0-.045-.046.048.048,0,0,0-.047.046.047.047,0,0,0,.047.044" transform="translate(-5.119 -2.291)" fill="#fff"/>
    <path id="Path_874" data-name="Path 874" d="M38.628,17.63a.046.046,0,0,0,.046-.045.046.046,0,1,0-.091,0,.045.045,0,0,0,.045.045" transform="translate(-5.095 -2.316)" fill="#fff"/>
    <path id="Path_875" data-name="Path 875" d="M38.448,17.812a.046.046,0,0,0,.045-.046.046.046,0,1,0-.045.046" transform="translate(-5.071 -2.34)" fill="#fff"/>
    <path id="Path_876" data-name="Path 876" d="M38.816,17.812a.046.046,0,0,0,.045-.046.047.047,0,0,0-.045-.046.048.048,0,0,0-.047.046.048.048,0,0,0,.047.046" transform="translate(-5.119 -2.34)" fill="#fff"/>
    <path id="Path_877" data-name="Path 877" d="M39.18,17.812a.045.045,0,0,0,.044-.046.046.046,0,0,0-.044-.046.049.049,0,0,0-.048.046.048.048,0,0,0,.048.046" transform="translate(-5.167 -2.34)" fill="#fff"/>
    <path id="Path_878" data-name="Path 878" d="M39.746,17.981a.045.045,0,0,0,.045-.045.045.045,0,1,0-.09,0,.045.045,0,0,0,.045.045" transform="translate(-5.242 -2.362)" fill="#fff"/>
    <path id="Path_879" data-name="Path 879" d="M39.938,18.157a.046.046,0,1,0-.045-.046.046.046,0,0,0,.045.046" transform="translate(-5.268 -2.385)" fill="#fff"/>
    <path id="Path_880" data-name="Path 880" d="M39.753,18.35A.046.046,0,0,0,39.8,18.3a.045.045,0,0,0-.045-.044.046.046,0,0,0-.047.044.047.047,0,0,0,.047.046" transform="translate(-5.243 -2.411)" fill="#fff"/>
    <path id="Path_881" data-name="Path 881" d="M39.01,18.356a.046.046,0,0,0,0-.091.046.046,0,1,0,0,.091" transform="translate(-5.145 -2.412)" fill="#fff"/>
    <path id="Path_882" data-name="Path 882" d="M38.628,18.356a.046.046,0,1,0-.045-.045.046.046,0,0,0,.045.045" transform="translate(-5.095 -2.412)" fill="#fff"/>
    <path id="Path_883" data-name="Path 883" d="M39.184,18.532a.046.046,0,0,0,.045-.046.045.045,0,0,0-.045-.045.046.046,0,0,0-.046.045.046.046,0,0,0,.046.046" transform="translate(-5.168 -2.435)" fill="#fff"/>
    <path id="Path_884" data-name="Path 884" d="M38.816,18.532a.046.046,0,0,0,.045-.046.045.045,0,0,0-.045-.045.047.047,0,0,0-.047.045.048.048,0,0,0,.047.046" transform="translate(-5.119 -2.435)" fill="#fff"/>
    <path id="Path_885" data-name="Path 885" d="M38.448,18.532a.046.046,0,0,0,.045-.046.046.046,0,0,0-.092,0,.046.046,0,0,0,.047.046" transform="translate(-5.071 -2.435)" fill="#fff"/>
    <path id="Path_886" data-name="Path 886" d="M40.256,15.561c.078.032.2.173.125.253-.287-.1-.378.148-.378.29,0,.326.247.495.247,1.077a1.133,1.133,0,0,1-1.014,1.114,1.617,1.617,0,0,0-.7.322v-.059a1.879,1.879,0,0,1,.768-.319,1.141,1.141,0,0,0,.9-1.072c0-.41-.168-.731-.325-.731-.067,0-.046.082-.009.137.024.031.049.086-.011.075s-.14.008-.14.062c0,.025.034.025.052.016a.144.144,0,0,1,.076-.019c.065,0,.138.043.138.092s-.091.026-.091.065.22.182.22.367c0,.057-.023.036-.037,0s-.053-.084-.089-.084-.056.014-.042.043a.5.5,0,0,1,.077.252.718.718,0,0,1-.156.373c-.03.038-.04.013-.047,0s-.021-.058-.049-.058c-.052,0-.02.247-.593.4a1.829,1.829,0,0,0-.646.286,1.781,1.781,0,0,0-.642-.286c-.572-.154-.542-.4-.592-.4-.03,0-.044.043-.049.058s-.017.038-.046,0a.712.712,0,0,1-.157-.373.52.52,0,0,1,.075-.252c.017-.03,0-.043-.039-.043s-.074.048-.088.084-.038.057-.038,0c0-.185.22-.341.22-.367s-.093-.018-.093-.065.072-.092.14-.092a.146.146,0,0,1,.076.019c.018.009.05.009.05-.016,0-.054-.078-.075-.139-.062s-.034-.043-.013-.075c.038-.056.06-.137-.006-.137-.158,0-.326.321-.326.731a1.142,1.142,0,0,0,.9,1.072,1.847,1.847,0,0,1,.765.319v.059a1.583,1.583,0,0,0-.7-.322,1.131,1.131,0,0,1-1.011-1.114c0-.582.247-.751.247-1.077,0-.142-.09-.392-.378-.29-.078-.08.048-.22.126-.253a.633.633,0,0,1,.614-.382c.252,0,.447.122.714.122a.9.9,0,0,0,.384-.109v.055a.893.893,0,0,1-.384.111c-.267,0-.463-.123-.714-.123a.665.665,0,0,0-.431.155c.012,0,.061.021.066.023.024.018.013.045-.02.033a.249.249,0,0,0-.078-.028.187.187,0,0,0-.036.04.246.246,0,0,1,.127.033c.027.016.019.048-.017.03a.261.261,0,0,0-.138-.026.186.186,0,0,0-.019.044l.014.062c-.049,0-.188.047-.162.134a.32.32,0,0,1,.374.325c0,.057.02.052.02.033a.368.368,0,0,0-.2-.378c-.05-.024-.037-.068.032-.029a.378.378,0,0,1,.2.332c0,.043-.013.135-.013.135a.255.255,0,0,0,.051-.176.368.368,0,0,0-.31-.374l-.014-.062c.083-.01.381.069.381.472a.809.809,0,0,1-.111.37c.08-.01.229-.01.111.2.174.036.129.208.075.208-.072,0-.066-.04-.137-.04-.051,0-.056.035-.028.044a.07.07,0,0,1,.059.071c0,.072-.107.036-.2.247a.221.221,0,0,1,.071-.016c.021,0,.074.008.074.052s-.091.107-.091.284a.734.734,0,0,0,.117.289.127.127,0,0,1,.087-.047c.111,0,.094.086.094.11a.654.654,0,0,0,.471.322,1.862,1.862,0,0,1,.672.274,1.909,1.909,0,0,1,.676-.274.651.651,0,0,0,.47-.322c0-.024-.016-.11.094-.11a.127.127,0,0,1,.086.047.709.709,0,0,0,.119-.289c0-.177-.091-.241-.091-.284s.052-.052.073-.052a.217.217,0,0,1,.07.016c-.091-.212-.2-.175-.2-.247a.071.071,0,0,1,.06-.071c.029-.01.023-.044-.028-.044-.071,0-.066.04-.138.04-.055,0-.1-.173.074-.208-.116-.21.032-.211.11-.2a.829.829,0,0,1-.11-.37.451.451,0,0,1,.212-.425.334.334,0,0,0-.05-.053c-.03-.026-.005-.048.021-.027a.229.229,0,0,1,.062.062.314.314,0,0,1,.04-.015.382.382,0,0,0-.056-.056c-.025-.024-.005-.046.021-.03s.039.021.073.077a.262.262,0,0,1,.059,0l-.015.062a.368.368,0,0,0-.308.374.263.263,0,0,0,.049.176s-.011-.092-.011-.135a.378.378,0,0,1,.2-.332c.071-.039.082,0,.032.029a.368.368,0,0,0-.2.378c0,.019.02.024.02-.033a.321.321,0,0,1,.375-.325c.026-.087-.113-.134-.164-.134l.015-.062a.588.588,0,0,0-.546-.306c-.252,0-.448.123-.715.123a.924.924,0,0,1-.388-.111v-.055a.927.927,0,0,0,.386.109c.267,0,.465-.122.717-.122a.631.631,0,0,1,.612.382" transform="translate(-4.843 -2.004)" fill="#fff"/>
    <path id="Path_887" data-name="Path 887" d="M39.03,18.826a2.229,2.229,0,0,1,.579-.223c.074-.014.057.015-.013.031a2.38,2.38,0,0,0-.538.2c-.031.026-.085.024-.028-.012" transform="translate(-5.15 -2.456)" fill="#fff"/>
    <path id="Path_888" data-name="Path 888" d="M38.582,18.859a1.626,1.626,0,0,0-.54-.209c-.074-.015-.059.016.013.033a1.583,1.583,0,0,1,.5.188c.035.022.082.03.028-.012" transform="translate(-5.017 -2.462)" fill="#fff"/>
    <path id="Path_889" data-name="Path 889" d="M38.6,16.114l1.453,1.423a.2.2,0,0,0-.006-.089L38.6,16.031l-1.444,1.417a.2.2,0,0,0-.008.089Z" transform="translate(-4.905 -2.117)" fill="#fff"/>
    <path id="Path_890" data-name="Path 890" d="M38.643,16.851,39.8,17.988l.032-.052-1.193-1.168-1.192,1.168.032.052Z" transform="translate(-4.945 -2.214)" fill="#fff"/>
    <path id="Path_891" data-name="Path 891" d="M38.6,16.632l1.253,1.228c.1.081.175-.173.2-.246L38.6,16.2l-1.449,1.418.157.095v-.073l-.044-.059.069-.023.044-.058.042.058.092-.043,0-.074-.046-.059.071-.021.043-.06.043.06.09-.046,0-.074-.044-.058.071-.022.042-.06.043.06.092-.045v-.074l-.043-.058.069-.023.042-.059.043.059.092-.045v-.074l-.043-.058.069-.022.043-.06.042.06.094-.044V16.64l-.045-.06.071-.021.042-.06.043.06.093-.046V16.44l-.045-.057.07-.022L38.6,16.3l.044.061.069.022-.043.057v.074l.021.067.07-.021.042-.06.042.06.07.021-.043.06v.074l.092.044.044-.06.042.06.07.022-.044.058,0,.074.092.045.042-.059.043.059.069.023-.045.058,0,.074.093.045.041-.06.043.06.069.022-.043.058v.074l.093.046.043-.06.042.06.069.021-.043.059v.074l.09.043.044-.058.041.058.071.023-.043.059v.073l-.069-.023-.07.023v-.073l-.043-.059.069-.023-.09-.043-.069-.023-.07.023v-.074l-.043-.059.07-.021-.093-.046-.07-.023-.069.023v-.074l-.043-.058.07-.022-.093-.045-.069-.023-.069.023,0-.074L39.1,16.98l.071-.023-.092-.045-.069-.023-.069.023v-.074L38.9,16.78l.069-.022-.092-.044-.069-.023-.069.023V16.64l-.043-.06-.021-.067-.071-.023-.068.023-.093.046.07.021-.043.06v.074l-.069-.023-.069.023-.094.044.07.022-.043.058v.074l-.069-.023-.069.023-.092.045.069.023-.043.058,0,.074-.071-.023-.069.023-.092.045.069.022-.043.058v.074l-.069-.023-.07.023-.09.046.069.021-.045.059,0,.074-.069-.023-.069.023-.092.043.069.023-.044.059,0,.073-.069-.023-.069.023-.157-.095c.021.073.094.326.2.246Z" transform="translate(-4.906 -2.138)" fill="#fff"/>
    <path id="Path_892" data-name="Path 892" d="M3.686,11.7v2.369H7.73v3.122H3.686v5.567H0V8.574H8.143V11.7Z" transform="translate(0 -1.132)" fill="#fff"/>
    <path id="Path_893" data-name="Path 893" d="M10.181,8.574V22.756H13.85l.016-3.123V11.7h.866a3.73,3.73,0,0,1,4.042,3.967c0,2.764-1.881,3.967-4.081,3.967h-.827l-.016,3.123h1.559a7.092,7.092,0,1,0,0-14.182Z" transform="translate(-1.344 -1.132)" fill="#fff"/>
    <rect id="Rectangle_56" data-name="Rectangle 56" width="3.686" height="14.182" transform="translate(21.792 7.442)" fill="#fff"/>
    <path id="Path_894" data-name="Path 894" d="M40.785,13.277a4.006,4.006,0,0,0-3.237-1.561,3.737,3.737,0,0,0-3.78,3.931A3.678,3.678,0,0,0,37.606,19.5,4.245,4.245,0,0,0,40.785,18v4.42a10.46,10.46,0,0,1-3.255.658,7.894,7.894,0,0,1-5.322-2.087,6.931,6.931,0,0,1-2.275-5.36,7.423,7.423,0,0,1,2.087-5.19,7.679,7.679,0,0,1,5.4-2.3,8.648,8.648,0,0,1,3.368.715Z" transform="translate(-3.953 -1.075)" fill="#fff"/>
    <path id="Path_895" data-name="Path 895" d="M.033,5.366v.678H2.819V5.366c-.808-.024-.937-.129-.937-.677V1.277L3.549,6.044h.7l1.8-4.767V4.611c0,.7,0,.7-.989.755v.678H8.29V5.366c-.937,0-.964-.1-.964-.6V1.434C7.326.886,7.4.7,8.29.7V0H5.528L4.122,3.829,2.819,0H.033V.7C.814.7.945.7.945,1.382v3.2c0,.623,0,.779-.912.779" transform="translate(-0.004 0)" fill="#fff" fill-rule="evenodd"/>
    <path id="Path_896" data-name="Path 896" d="M15.6,5.612v.678h2.579V5.612c-.627-.024-.627-.1-.627-.963v-.73c0-.7.312-1.277.964-1.277.522,0,.678.339.678.809V4.987c0,.52-.027.624-.652.624v.678h2.317V5.612c-.547,0-.6-.051-.6-.572V3.97c0-.727.339-1.354,1.016-1.354.522,0,.627.312.627.937V5.117c0,.444,0,.495-.627.495v.678h2.554V5.612c-.782,0-.834.026-.834-.416V3.451c0-.991-.233-1.564-1.251-1.564a1.9,1.9,0,0,0-1.484.755,1.334,1.334,0,0,0-1.25-.78,1.753,1.753,0,0,0-1.459.834v-.7H15.6v.624c.78,0,.859.026.859.653V4.7c0,.911,0,.911-.859.911" transform="translate(-2.06 -0.246)" fill="#fff" fill-rule="evenodd"/>
    <path id="Path_897" data-name="Path 897" d="M25.444,0h1.823V2.216a1.834,1.834,0,0,1,1.3-.573c1.043,0,1.745.938,1.745,2.241,0,1.406-.7,2.317-1.9,2.317a1.643,1.643,0,0,1-1.328-.6l-.365.5h-.548V1.41c0-.7-.052-.781-.729-.781ZM29.091,3.88c0-.988-.365-1.483-.885-1.483-.676,0-.963.548-.963,1.563,0,.884.338,1.485.937,1.485.5,0,.911-.469.911-1.565" transform="translate(-3.36 0)" fill="#fff" fill-rule="evenodd"/>
    <path id="Path_898" data-name="Path 898" d="M37.446,5.615v.678h2.813V5.615c-.781,0-.86.026-.86-.6V4.079c0-.86.287-1.64,1.068-1.64a.7.7,0,0,1,.26.051.669.669,0,0,0-.443.6.568.568,0,0,0,.6.573.707.707,0,0,0,.7-.78.958.958,0,0,0-.989-.991,1.6,1.6,0,0,0-1.225.7V2H37.446V2.62c.678,0,.86,0,.86.574V4.965c0,.6,0,.65-.86.65" transform="translate(-4.945 -0.249)" fill="#fff" fill-rule="evenodd"/>
    <path id="Path_899" data-name="Path 899" d="M33.185,4.264c0,.833.391,1.406,1.092,1.406.627,0,.913-.365,1.018-.937h.782a1.787,1.787,0,0,1-1.9,1.693,2.044,2.044,0,0,1-2.187-2.213,2.121,2.121,0,0,1,2.084-2.318c1.224,0,2.006.938,2.006,2.37Zm.886-1.7c-.523,0-.834.364-.834,1.016h1.64c0-.677-.26-1.016-.806-1.016" transform="translate(-4.224 -0.25)" fill="#fff" fill-rule="evenodd"/>
    <path id="Path_900" data-name="Path 900" d="M11.34,4.264c0,.833.417,1.406,1.119,1.406.627,0,.911-.365,1.016-.937h.757a1.764,1.764,0,0,1-1.877,1.693,2.063,2.063,0,0,1-2.214-2.213,2.141,2.141,0,0,1,2.11-2.318c1.224,0,1.981.938,1.981,2.37Zm.911-1.7c-.521,0-.834.364-.834,1.016h1.615c0-.7-.26-1.016-.781-1.016" transform="translate(-1.339 -0.25)" fill="#fff" fill-rule="evenodd"/>
  </g>
</svg>
