<svg xmlns="http://www.w3.org/2000/svg" width="160" height="43.984" viewBox="0 0 160 43.984">
  <g id="Logo_LibertyBank" transform="translate(-352 -64.267)">
    <g id="Group_6752" data-name="Group 6752" transform="translate(352 64.267)">
      <g id="Group_208" data-name="Group 208" transform="translate(19.744 17.336)">
        <path id="Path_585" data-name="Path 585" d="M66.452,9.282H63.1V28.043h9.579V24.686H66.55" transform="translate(-63.095 -9.252)" fill="#1e1e1e"/>
        <rect id="Rectangle_38" data-name="Rectangle 38" width="3.357" height="12.74" transform="translate(10.779 6.052)" fill="#1e1e1e"/>
        <path id="Path_586" data-name="Path 586" d="M72.691,11.566a2.047,2.047,0,1,1-2.046-2.047,2.048,2.048,0,0,1,2.046,2.047" transform="translate(-58.213 -9.042)" fill="#1e1e1e"/>
        <path id="Path_587" data-name="Path 587" d="M134.649,9.282h-3.457V28.141h3.457V21.723l4.246,6.32h3.95l-5.135-7.7,5.235-6.814H138.7l-4.048,5.431" transform="translate(-2.688 -9.252)" fill="#1e1e1e"/>
        <path id="Path_588" data-name="Path 588" d="M122.856,26.512a7.737,7.737,0,0,0,4.714-1.668V26h3.359s.025-6.807.025-6.993c0-4.146-3.625-7.507-8.1-7.507s-8.1,3.361-8.1,7.507,3.625,7.5,8.1,7.5m0-11.553a4.346,4.346,0,0,1,4.591,4.05,4.628,4.628,0,0,1-9.182,0,4.346,4.346,0,0,1,4.591-4.05" transform="translate(-17.266 -7.283)" fill="#1e1e1e"/>
        <path id="Path_589" data-name="Path 589" d="M79.514,13.452A7.738,7.738,0,0,0,74.8,15.12V9.3H71.442s-.025,11.464-.025,11.653c0,4.144,3.625,7.5,8.1,7.5s8.1-3.361,8.1-7.5-3.625-7.5-8.1-7.5m0,11.553a4.344,4.344,0,0,1-4.591-4.048,4.627,4.627,0,0,1,9.182,0A4.344,4.344,0,0,1,79.514,25" transform="translate(-55.713 -9.232)" fill="#1e1e1e"/>
        <path id="Path_590" data-name="Path 590" d="M96.429,20.358H85.879a2.676,2.676,0,0,1-.451-1.3,2.992,2.992,0,0,1,.451-1.351h6.9a4.765,4.765,0,0,0-9.05,1.451c0,1.449.9,3.972,4.6,4.1,2.9.1,3.5-1.5,3.5-1.5l4.263-.038a8.5,8.5,0,0,1-7.665,4.872,7.849,7.849,0,0,1-8.1-7.569,8.121,8.121,0,0,1,16.2,0,8.275,8.275,0,0,1-.125,1.338" transform="translate(-47.813 -7.322)" fill="#1e1e1e"/>
        <path id="Path_591" data-name="Path 591" d="M96.97,15.033v-3.5s-7.352-.9-7.352,5.052c0,5.45-.049,9.5-.049,9.5h3.6v-8.8s-.4-2.9,3.8-2.251" transform="translate(-39.611 -7.298)" fill="#1e1e1e"/>
        <path id="Path_592" data-name="Path 592" d="M97.505,10.073H93.984V23.339s-.128,4.295,4.08,4.295c2.232,0,2.961-.6,2.961-.6V23.726a3.267,3.267,0,0,1-2.017.472c-1.459,0-1.5-.687-1.5-1.159V16.212h3.263V12.864H97.505" transform="translate(-35.695 -8.55)" fill="#1e1e1e"/>
        <path id="Path_593" data-name="Path 593" d="M101.52,11.529H98.17v10.3s-.3,4.552,5.754,4.552a5.668,5.668,0,0,0,3.134-.772v2.061a2.138,2.138,0,0,1-2.361,1.846,8.934,8.934,0,0,1-3.263-.6v3.091a10.457,10.457,0,0,0,3.821.559,5.113,5.113,0,0,0,5.323-4.9c.043-3.134,0-16.057,0-16.057H107.1v9.745s.172,1.632-2.878,1.632c-2.876,0-2.7-1.674-2.7-1.674" transform="translate(-31.983 -7.259)" fill="#1e1e1e"/>
        <path id="Path_594" data-name="Path 594" d="M130.6,11.559c-1.751,0-6.7.721-6.7,4.637v9.839h3.35V16.813s.206-1.906,3.193-1.906,2.936,1.855,2.936,1.855v9.222h3.4V16.35c0-.515-.309-4.791-6.182-4.791" transform="translate(-9.152 -7.232)" fill="#1e1e1e"/>
        <path id="Path_595" data-name="Path 595" d="M117.754,17.2a6.382,6.382,0,0,0,.979-2.987,5.128,5.128,0,0,0-5.306-4.946h-5.255V28.018h6.284s5.667-.053,5.667-5.563c0-4.07-2.368-5.255-2.368-5.255m-6.131-4.38h1.6a1.717,1.717,0,0,1,1.881,1.727,1.612,1.612,0,0,1-1.727,1.727h-1.751Zm2.517,11.736h-2.517V19.569h2.295a2.468,2.468,0,0,1,2.7,2.493,2.317,2.317,0,0,1-2.48,2.493" transform="translate(-23.11 -9.266)" fill="#1e1e1e"/>
      </g>
      <g id="Group_207" data-name="Group 207">
        <path id="Path_596" data-name="Path 596" d="M71.5,1c-2.378,3.548-7.107.642-12.826.76C55.86,1.817,52.82,3.51,52.884,7.4a7.71,7.71,0,0,0,1.368,3.933c.343.487,2.448,2.934,2.185,3.459,0,0,3.5-.332,4.374-3.038s.84-5.048,4.1-4.906c0,0,3.506.457,5.4-.755,2.095-1.34,3.75-3.693,2.195-6.016,0,0,.185,4.533-3.848,5a42.856,42.856,0,0,1-5.431-.27,2.637,2.637,0,0,0-2.98,1.881l-1.07,3.18a4.722,4.722,0,0,1-.555-2.353,4.359,4.359,0,0,1,1.753-2.865c.357-.143-2.417-.223-3.35,2.151a10.3,10.3,0,0,0-.343,3.38s-2.151-3.693.785-5.9a4,4,0,0,1,2.793-.615s5.261.5,5.859.572a8.171,8.171,0,0,0,3.35-.228,3.515,3.515,0,0,0,2.023-3" transform="translate(-52.41 -0.079)" fill="#417630"/>
        <path id="Path_597" data-name="Path 597" d="M70.11,2.13a5.557,5.557,0,0,1-3.34,3.293,10.845,10.845,0,0,1-4.684.517,2.406,2.406,0,0,0-2.8,2.076,17.683,17.683,0,0,1-1.245,3.453,3.186,3.186,0,0,1-1.561,1.287,3.2,3.2,0,0,0,2.865-.057c1.081-.493,1.6-2.268,1.9-2.891s.934-1.674,3.157-1.851,3.289-.194,4.327-1.185a4.271,4.271,0,0,0,1.417-4.523" transform="translate(-49.221 1.74)" fill="#417630"/>
        <path id="Path_598" data-name="Path 598" d="M56.562,8.287s-.338,1.579-.408,1.793-.019.745-1.136.532-1.527-.285-1.527-.285-.389-.036-.6.5a2.335,2.335,0,0,0,.779,3.1l-.389,1.278s-.479,1.172.513,1.561c1.162.457,1.9.817,1.9.817s.319.072.2.443c-.14.415-.5,1.259-.5,1.259s-.426.853.727.887,2.519.072,2.519.072.347,5.956.319,7.807c-.036,2.342-.3,6.1-.355,6.9s-.091,1.812.125,1.829c.23.017.576-.621.923-1.774a30.161,30.161,0,0,0,1.242-5.11c.081-1.566.142-4.506.053-6.476s-.106-3.833-.125-4.24.143-.851-.762-.834-1.827.072-2.076.072-.46.053-.23-.532.3-.853.3-.853a.854.854,0,0,0-.019-.355c-.047-.087.515-.125,1.119-.319s1.028-.355,1.366-.5.691-.319.621-.462-.5-.036-.781.055-1.527.5-1.846.549a2.982,2.982,0,0,1-1.436-.089c-.6-.2-1.846-.762-1.846-.762l.46-1.242s.7.336.853.391a3.242,3.242,0,0,0,2.164.051,15.648,15.648,0,0,0,1.9-.708c.194-.089.549-.249.46-.391s-.391-.072-.638.017-1.438.426-1.687.5a2.739,2.739,0,0,1-2.164-.142c-1.01-.532-1.427-.844-1.632-.94-.3-.142-.538-.859.3-.674.887.194,1.011.211,1.438.283a2.52,2.52,0,0,0,1.561-.177c.923-.3,2.785-1.03,2.785-1.03s-.159-.53-.247-.779-.321-.621-1.066-.374-1.561.5-1.561.5-.017-.515-.017-.71-.2-1.1-1.579-1.438" transform="translate(-52.632 7.202)" fill="#417630"/>
      </g>
    </g>
  </g>
</svg>
