<?xml version="1.0" encoding="utf-8"?>
<!-- Generator: Adobe Illustrator 16.0.0, SVG Export Plug-In . SVG Version: 6.00 Build 0)  -->
<!DOCTYPE svg PUBLIC "-//W3C//DTD SVG 1.1//EN" "http://www.w3.org/Graphics/SVG/1.1/DTD/svg11.dtd">
<svg version="1.1" id="Layer_1" xmlns="http://www.w3.org/2000/svg" xmlns:xlink="http://www.w3.org/1999/xlink" x="0px" y="0px"
	 width="53.333px" height="50px" viewBox="0 0 53.333 50" enable-background="new 0 0 53.333 50" xml:space="preserve">
<path id="icon_business" fill="#FFFFFF" d="M48.333,10H40V4.167C40,1.866,38.134,0,35.833,0H17.5c-2.301,0-4.167,1.866-4.167,4.167
	V10H5c-2.761,0-5,2.239-5,5v30c0,2.762,2.239,5,5,5h43.333c2.762,0,5-2.238,5-5V15C53.333,12.239,51.094,10,48.333,10z M15,4.167
	c0-1.381,1.119-2.5,2.5-2.5h18.333c1.381,0,2.5,1.119,2.5,2.5V10H15V4.167z M51.667,45c-0.002,1.84-1.492,3.33-3.332,3.333H5
	C3.16,48.33,1.67,46.84,1.667,45V28.333h16.666v5.833c0.004,1.379,1.121,2.496,2.5,2.5H32.5c1.381,0,2.5-1.119,2.5-2.5v-5.833
	h16.666V45z M33.333,28.333v5.833c0,0.46-0.373,0.833-0.832,0.834H20.833c-0.459-0.002-0.832-0.373-0.833-0.833v-5.834H33.333z
	 M1.667,26.667V15C1.67,13.16,3.16,11.67,5,11.667h43.333c1.84,0.002,3.332,1.493,3.334,3.333v11.667H1.667z"/>
</svg>
