<svg xmlns="http://www.w3.org/2000/svg" width="209.037" height="40" viewBox="0 0 209.037 40">
  <g id="logo_theres-freedom-here" transform="translate(17272 14222)">
    <g id="footer_LIB_tagline" data-name="footer / LIB / tagline" transform="translate(-18168.82 -14622.129)">
      <path id="Path_694" data-name="Path 694" d="M99.63,70.726v2.089h3.685V86.25h2.471V72.815h3.62V70.726Z" transform="translate(828.508 341.577)" fill="#fff"/>
      <path id="Path_695" data-name="Path 695" d="M105.726,70.726h2.341v5.086l.065.045a3.37,3.37,0,0,1,2.861-1.609c1.777,0,2.9.8,2.9,3.174v8.824h-2.343V78.225c0-1.52-.455-2.108-1.625-2.108-.953,0-1.864.761-1.864,2.281v7.848h-2.341" transform="translate(833.43 341.577)" fill="#fff"/>
      <path id="Path_696" data-name="Path 696" d="M113.648,79.131v.674c0,1.563.193,3.564,1.95,3.564,1.668,0,1.864-1.914,1.864-2.608h2.212a3.861,3.861,0,0,1-4.1,4.217c-1.909,0-4.271-.564-4.271-5.977,0-3.066.651-6.326,4.313-6.326,3.254,0,4.121,1.956,4.121,5.216v1.24m-2.343-1.61v-.629c0-1.479-.477-2.608-1.8-2.608-1.495,0-1.95,1.479-1.95,3v.239Z" transform="translate(837.935 343.151)" fill="#fff"/>
      <path id="Path_697" data-name="Path 697" d="M117.03,72.98h2.339V74.8h.045a2.883,2.883,0,0,1,2.709-2.127,1.816,1.816,0,0,1,.564.085v2.391a4.41,4.41,0,0,0-.976-.13c-1.061,0-2.343.477-2.343,2.652v7H117.03" transform="translate(842.558 343.152)" fill="#fff"/>
      <path id="Path_698" data-name="Path 698" d="M122.959,79.131v.674c0,1.563.2,3.564,1.95,3.564,1.67,0,1.865-1.914,1.865-2.608h2.211a3.86,3.86,0,0,1-4.1,4.217c-1.909,0-4.273-.564-4.273-5.977,0-3.066.652-6.326,4.315-6.326,3.253,0,4.119,1.956,4.119,5.216v1.24m-2.341-1.61v-.629c0-1.479-.477-2.608-1.8-2.608-1.495,0-1.95,1.479-1.95,3v.239Z" transform="translate(845.454 343.151)" fill="#fff"/>
      <path id="Path_699" data-name="Path 699" d="M126.473,70.726h2.471v2.869c0,1.719-.564,2.981-2.471,3.349V75.682a1.62,1.62,0,0,0,1.085-1.761v-.327h-1.085" transform="translate(850.183 341.577)" fill="#fff"/>
      <path id="Path_700" data-name="Path 700" d="M134.47,76.391v-.305c0-.933-.324-1.8-1.538-1.8-.933,0-1.67.434-1.67,1.52,0,.913.414,1.283,1.648,1.717l1.495.522a3.168,3.168,0,0,1,2.538,3.369c0,2.5-1.824,3.566-4.184,3.566-2.95,0-3.837-1.37-3.837-3.631v-.436H131v.371c0,1.348.475,2.086,1.818,2.086,1.28,0,1.909-.651,1.909-1.715a1.7,1.7,0,0,0-1.278-1.719l-1.909-.674a3.114,3.114,0,0,1-2.493-3.369c0-2.194,1.582-3.216,3.987-3.216,2.972,0,3.644,1.737,3.644,3.194v.522" transform="translate(852.16 343.151)" fill="#fff"/>
      <path id="Path_701" data-name="Path 701" d="M138.3,76.369h-1.627V74.63H138.3V73.544c0-2.218,1.061-2.914,2.968-2.914a10.627,10.627,0,0,1,1.28.065v1.8H141.9c-.869,0-1.26.325-1.26,1.108V74.63h1.909v1.739h-1.909v9.956H138.3" transform="translate(858.42 341.499)" fill="#fff"/>
      <path id="Path_702" data-name="Path 702" d="M140.5,72.98h2.341V74.8h.045a2.882,2.882,0,0,1,2.709-2.127,1.812,1.812,0,0,1,.562.085v2.391a4.41,4.41,0,0,0-.976-.13c-1.061,0-2.341.477-2.341,2.652v7H140.5" transform="translate(861.511 343.152)" fill="#fff"/>
      <path id="Path_703" data-name="Path 703" d="M146.431,79.131v.674c0,1.563.193,3.564,1.95,3.564,1.668,0,1.864-1.914,1.864-2.608h2.212a3.861,3.861,0,0,1-4.1,4.217c-1.909,0-4.271-.564-4.271-5.977,0-3.066.651-6.326,4.313-6.326,3.253,0,4.121,1.956,4.121,5.216v1.24m-2.343-1.61v-.629c0-1.479-.477-2.608-1.8-2.608-1.5,0-1.95,1.479-1.95,3v.239Z" transform="translate(864.408 343.151)" fill="#fff"/>
      <path id="Path_704" data-name="Path 704" d="M151.975,79.131v.674c0,1.563.193,3.564,1.95,3.564,1.668,0,1.864-1.914,1.864-2.608H158a3.86,3.86,0,0,1-4.1,4.217c-1.909,0-4.271-.564-4.271-5.977,0-3.066.651-6.326,4.315-6.326,3.252,0,4.119,1.956,4.119,5.216v1.24m-2.343-1.61v-.629c0-1.479-.475-2.608-1.8-2.608-1.495,0-1.95,1.479-1.95,3v.239Z" transform="translate(868.884 343.151)" fill="#fff"/>
      <path id="Path_705" data-name="Path 705" d="M161.522,84.812h-.043a2.493,2.493,0,0,1-2.559,1.741c-2.731,0-3.814-2.283-3.814-6.3,0-5.2,1.82-6,3.6-6a2.714,2.714,0,0,1,2.646,1.672h.043V70.726h2.343V86.249h-2.212M159.4,76.118c-1.343,0-1.82,1.086-1.82,4.24,0,2.652.345,4.325,1.972,4.325,1.605,0,1.974-1.654,1.974-4.154,0-2.8-.325-4.412-2.126-4.412" transform="translate(873.304 341.577)" fill="#fff"/>
      <path id="Path_706" data-name="Path 706" d="M165.2,72.675c3.4,0,4.356,2.52,4.356,6.151s-1.1,6.153-4.356,6.153c-3.23,0-4.334-2.523-4.334-6.153s.953-6.151,4.334-6.151m0,10.563c1.712,0,2.015-1.433,2.015-4.412,0-2.587-.3-4.414-2.015-4.414-1.692,0-2,1.827-2,4.414,0,2.979.3,4.412,2,4.412" transform="translate(877.955 343.151)" fill="#fff"/>
      <path id="Path_707" data-name="Path 707" d="M166.72,72.98h2.212v1.368H169a3.259,3.259,0,0,1,2.8-1.672,2.529,2.529,0,0,1,2.709,1.78,3.187,3.187,0,0,1,2.948-1.78c1.648,0,2.84.846,2.84,3.107v8.891H177.95V76.653c0-1.52-.455-2.109-1.41-2.109s-1.864.763-1.864,2.283v7.848h-2.341V76.653c0-1.52-.457-2.109-1.432-2.109-.933,0-1.844.763-1.844,2.283v7.848H166.72" transform="translate(882.683 343.152)" fill="#fff"/>
      <path id="Path_708" data-name="Path 708" d="M178.4,70.726h2.341v5.086l.065.045a3.374,3.374,0,0,1,2.861-1.609c1.779,0,2.9.8,2.9,3.174v8.824h-2.341V78.225c0-1.52-.455-2.108-1.627-2.108-.953,0-1.864.761-1.864,2.281v7.848H178.4" transform="translate(892.112 341.577)" fill="#fff"/>
      <path id="Path_709" data-name="Path 709" d="M186.319,79.131v.674c0,1.563.193,3.564,1.95,3.564,1.67,0,1.864-1.914,1.864-2.608h2.212a3.861,3.861,0,0,1-4.1,4.217c-1.909,0-4.271-.564-4.271-5.977,0-3.066.651-6.326,4.315-6.326,3.252,0,4.119,1.956,4.119,5.216v1.24m-2.343-1.61v-.629c0-1.479-.477-2.608-1.8-2.608-1.495,0-1.95,1.479-1.95,3v.239Z" transform="translate(896.617 343.151)" fill="#fff"/>
      <path id="Path_710" data-name="Path 710" d="M189.7,72.98h2.341V74.8h.043a2.883,2.883,0,0,1,2.709-2.127,1.816,1.816,0,0,1,.564.085v2.391a4.411,4.411,0,0,0-.976-.13c-1.061,0-2.341.477-2.341,2.652v7H189.7" transform="translate(901.239 343.152)" fill="#fff"/>
      <path id="Path_711" data-name="Path 711" d="M195.629,79.131v.674c0,1.563.2,3.564,1.95,3.564,1.67,0,1.864-1.914,1.864-2.608h2.212a3.861,3.861,0,0,1-4.1,4.217c-1.911,0-4.273-.564-4.273-5.977,0-3.066.653-6.326,4.314-6.326,3.254,0,4.119,1.956,4.119,5.216v1.24m-2.343-1.61v-.629c0-1.479-.475-2.608-1.8-2.608-1.495,0-1.95,1.479-1.95,3v.239Z" transform="translate(904.136 343.151)" fill="#fff"/>
    </g>
    <g id="icon_primary" transform="translate(-17272 -14222)">
      <path id="Path_596" data-name="Path 596" d="M69.816.915c-2.162,3.226-6.463.583-11.665.692-2.56.053-5.325,1.593-5.267,5.133a7.011,7.011,0,0,0,1.244,3.576c.312.443,2.226,2.669,1.987,3.146,0,0,3.187-.3,3.978-2.763s.764-4.591,3.733-4.462c0,0,3.189.415,4.913-.686,1.9-1.218,3.41-3.358,2-5.471,0,0,.168,4.122-3.5,4.549A38.974,38.974,0,0,1,62.3,4.383a2.4,2.4,0,0,0-2.71,1.711l-.973,2.892a4.294,4.294,0,0,1-.5-2.14A3.964,3.964,0,0,1,59.7,4.241,3.022,3.022,0,0,0,56.658,6.2a9.363,9.363,0,0,0-.312,3.074S54.389,5.912,57.06,3.9a3.636,3.636,0,0,1,2.54-.559s4.785.455,5.329.52a7.431,7.431,0,0,0,3.046-.208A3.2,3.2,0,0,0,69.814.93" transform="translate(-52.453 -0.079)" fill="#fff"/>
      <path id="Path_597" data-name="Path 597" d="M68.876,2.13a5.054,5.054,0,0,1-3.038,2.995,9.862,9.862,0,0,1-4.259.47,2.188,2.188,0,0,0-2.547,1.888A16.08,16.08,0,0,1,57.9,10.623a2.9,2.9,0,0,1-1.419,1.17,2.909,2.909,0,0,0,2.605-.051c.983-.448,1.455-2.063,1.726-2.629s.849-1.522,2.871-1.684,2.991-.177,3.935-1.078a3.884,3.884,0,0,0,1.289-4.114" transform="translate(-49.879 1.39)" fill="#fff"/>
      <path id="Path_598" data-name="Path 598" d="M56.206,8.287s-.307,1.436-.371,1.63-.017.678-1.033.484-1.388-.259-1.388-.259-.354-.033-.547.453a2.123,2.123,0,0,0,.709,2.823l-.354,1.162s-.436,1.066.467,1.419c1.057.415,1.726.743,1.726.743s.29.065.178.4c-.127.378-.451,1.145-.451,1.145s-.388.776.661.807,2.291.065,2.291.065.316,5.416.29,7.1c-.033,2.13-.275,5.55-.323,6.276s-.082,1.647.113,1.663.523-.565.839-1.613a27.431,27.431,0,0,0,1.129-4.647c.074-1.424.129-4.1.048-5.89s-.1-3.485-.113-3.856.13-.774-.693-.759-1.661.065-1.888.065-.419.048-.209-.484.275-.776.275-.776a.777.777,0,0,0-.017-.323c-.043-.079.469-.113,1.018-.29s.935-.323,1.242-.451.628-.29.565-.42-.453-.033-.71.05-1.388.451-1.678.5a2.712,2.712,0,0,1-1.306-.081c-.549-.178-1.678-.693-1.678-.693l.419-1.129s.638.305.776.355a2.949,2.949,0,0,0,1.968.046,14.228,14.228,0,0,0,1.726-.644c.177-.081.5-.227.419-.355s-.355-.065-.58.015-1.308.388-1.534.451a2.491,2.491,0,0,1-1.968-.129c-.918-.484-1.3-.767-1.484-.855-.275-.129-.489-.781.275-.613.807.177.92.192,1.308.257a2.292,2.292,0,0,0,1.419-.161c.839-.275,2.533-.937,2.533-.937s-.144-.482-.225-.709-.292-.565-.97-.34-1.419.453-1.419.453-.015-.469-.015-.645-.178-1-1.436-1.308" transform="translate(-52.632 5.799)" fill="#fff"/>
    </g>
  </g>
</svg>
