<svg id="Customer_Care_-_Icon" data-name="Customer Care - Icon" xmlns="http://www.w3.org/2000/svg" width="20" height="20" viewBox="0 0 20 20">
  <path id="icon_customer-care" d="M10,0A10,10,0,1,0,20,10,10,10,0,0,0,10,0Zm0,18.75A8.75,8.75,0,1,1,18.75,10,8.761,8.761,0,0,1,10,18.75Zm-.625-5.312a.938.938,0,1,0,.938.938A.938.938,0,0,0,9.375,13.438ZM11.156,5H8.844A2.6,2.6,0,0,0,6.25,7.594v.375a.625.625,0,0,0,1.25,0V7.594A1.344,1.344,0,0,1,8.844,6.25h2.314a1.344,1.344,0,0,1,.675,2.5L9.473,9.934a1.411,1.411,0,0,0-.723,1.23v.711a.625.625,0,0,0,1.25,0v-.711a.156.156,0,0,1,.056-.124l2.36-1.18A2.593,2.593,0,0,0,11.156,5Z" fill="#333"/>
</svg>
