<svg xmlns="http://www.w3.org/2000/svg" width="56.237" height="50" viewBox="0 0 56.237 50">
  <path id="icon_home-loans" d="M28.125,25.332l1.3-1.338a5.449,5.449,0,0,1,7.812,7.6L29.8,39.238a2.341,2.341,0,0,1-3.359,0l-7.432-7.646a5.449,5.449,0,0,1,7.813-7.6Zm-8,5.166,7.441,7.646a.762.762,0,0,0,1.113,0L36.123,30.5a3.888,3.888,0,0,0-5.576-5.42l-2.422,2.49L25.7,25.078a3.888,3.888,0,0,0-5.576,5.42Zm35.859-6.084a.714.714,0,0,1-.02,1.1.624.624,0,0,1-1.016-.02L50,21.2V43.75A6.256,6.256,0,0,1,43.75,50H12.5a6.253,6.253,0,0,1-6.25-6.25V21.2L1.3,25.5a.714.714,0,0,1-1.1.02.775.775,0,0,1,.067-1.1L27.608.2a.78.78,0,0,1,1.035,0ZM12.5,48.437H43.75a4.689,4.689,0,0,0,4.688-4.687V19.814L28.125,1.825,7.813,19.814V43.75A4.689,4.689,0,0,0,12.5,48.437Z" transform="translate(0 0)" fill="#b7a66d"/>
</svg>
