<svg xmlns="http://www.w3.org/2000/svg" width="71.439" height="50" viewBox="0 0 71.439 50">
  <path id="icon_checking" d="M1.786,71.145V99.727a5.36,5.36,0,0,0,5.359,5.359h30.2l-.447,1.786H7.145A7.148,7.148,0,0,1,0,99.727V71.145A7.145,7.145,0,0,1,7.145,64H57.163a7.148,7.148,0,0,1,7.145,7.145v7.212a8.372,8.372,0,0,0-1.786.447V71.145a5.36,5.36,0,0,0-5.359-5.359H7.145A5.36,5.36,0,0,0,1.786,71.145ZM41.979,90.8a.893.893,0,1,1,0,1.786H11.611a.893.893,0,1,1,0-1.786ZM10.718,80.97a.894.894,0,0,1,.893-.893H52.7a.893.893,0,0,1,0,1.786H11.611A.894.894,0,0,1,10.718,80.97Zm29.106,32.511a1.894,1.894,0,0,1-.469-1.8l1.675-6.621a4.481,4.481,0,0,1,.938-1.753L62.209,83.17a4.474,4.474,0,0,1,6.319,0l1.6,1.608a4.454,4.454,0,0,1,0,6.319l-20.23,20.23a3.59,3.59,0,0,1-1.664.938l-6.71,1.686a1.823,1.823,0,0,1-1.7-.469Zm1.262-1.273,6.71-1.675a1.791,1.791,0,0,0,.837-.469L64.576,94.111l-5.393-5.393L43.229,104.673a1.8,1.8,0,0,0-.469.826Zm27.778-26.17-1.608-1.608a2.689,2.689,0,0,0-3.785,0l-3.026,3.026,5.392,5.393,3.026-3.014a2.681,2.681,0,0,0,0-3.8ZM47.851,110.757l.38,1.507Z" transform="translate(0 -64)" fill="#b7a66d"/>
</svg>
