<svg xmlns="http://www.w3.org/2000/svg" width="62.5" height="50" viewBox="0 0 62.5 50">
  <path id="house-building-thin" d="M32.813,6.25V16.465L31.25,15.029V6.25A6.253,6.253,0,0,1,37.5,0H56.25A6.253,6.253,0,0,1,62.5,6.25v37.5A6.256,6.256,0,0,1,56.25,50H39.063a7.771,7.771,0,0,0,.908-1.562H56.25a4.689,4.689,0,0,0,4.688-4.687V6.25A4.688,4.688,0,0,0,56.25,1.563H37.5A4.688,4.688,0,0,0,32.813,6.25Zm7.813,20.811c0-.166-.01-.332-.02-.5h2.363a.784.784,0,0,0,.781-.781V22.656a.784.784,0,0,0-.781-.781H39.844a.78.78,0,0,0-.742.547A9.089,9.089,0,0,0,38.1,21.3l-.1-.088a2.338,2.338,0,0,1,1.846-.9h3.125a2.338,2.338,0,0,1,2.344,2.344v3.125a2.338,2.338,0,0,1-2.344,2.344H40.625Zm0,10.439h2.344a.784.784,0,0,0,.781-.781V33.594a.784.784,0,0,0-.781-.781H40.625V31.25h2.344a2.338,2.338,0,0,1,2.344,2.344v3.125a2.338,2.338,0,0,1-2.344,2.344H40.625ZM53.906,20.313a2.338,2.338,0,0,1,2.344,2.344v3.125a2.338,2.338,0,0,1-2.344,2.344H50.781a2.338,2.338,0,0,1-2.344-2.344V22.656a2.338,2.338,0,0,1,2.344-2.344ZM50,25.781a.784.784,0,0,0,.781.781h3.125a.784.784,0,0,0,.781-.781V22.656a.784.784,0,0,0-.781-.781H50.781a.784.784,0,0,0-.781.781Zm-1.562,7.813a2.338,2.338,0,0,1,2.344-2.344h3.125a2.338,2.338,0,0,1,2.344,2.344v3.125a2.338,2.338,0,0,1-2.344,2.344H50.781a2.338,2.338,0,0,1-2.344-2.344Zm2.344-.781a.784.784,0,0,0-.781.781v3.125a.784.784,0,0,0,.781.781h3.125a.784.784,0,0,0,.781-.781V33.594a.784.784,0,0,0-.781-.781ZM42.969,9.375a2.338,2.338,0,0,1,2.344,2.344v3.125a2.338,2.338,0,0,1-2.344,2.344H39.844A2.338,2.338,0,0,1,37.5,14.844V11.719a2.338,2.338,0,0,1,2.344-2.344Zm-3.906,5.469a.784.784,0,0,0,.781.781h3.125a.784.784,0,0,0,.781-.781V11.719a.784.784,0,0,0-.781-.781H39.844a.784.784,0,0,0-.781.781Zm9.375-3.125a2.338,2.338,0,0,1,2.344-2.344h3.125a2.338,2.338,0,0,1,2.344,2.344v3.125a2.338,2.338,0,0,1-2.344,2.344H50.781a2.338,2.338,0,0,1-2.344-2.344Zm2.344-.781a.784.784,0,0,0-.781.781v3.125a.784.784,0,0,0,.781.781h3.125a.784.784,0,0,0,.781-.781V11.719a.784.784,0,0,0-.781-.781ZM21.875,25.693a2.4,2.4,0,0,1,2.344,2.344v6.338a2.338,2.338,0,0,1-2.344,2.344h-6.25a2.338,2.338,0,0,1-2.344-2.344V28.037a2.4,2.4,0,0,1,2.344-2.344Zm0,1.563h-6.25a.847.847,0,0,0-.781.781v6.338a.784.784,0,0,0,.781.781h6.25a.784.784,0,0,0,.781-.781V28.037A.847.847,0,0,0,21.875,27.256ZM0,44.531V27.4a5.31,5.31,0,0,1,1.773-4.023L15.059,11.2a5.456,5.456,0,0,1,7.383,0L35.723,23.379A5.3,5.3,0,0,1,37.5,27.4V44.531A5.472,5.472,0,0,1,32.031,50H5.469A5.47,5.47,0,0,1,0,44.531ZM1.563,27.4V44.531a3.906,3.906,0,0,0,3.906,3.906H32.031a3.905,3.905,0,0,0,3.906-3.906V27.4a3.905,3.905,0,0,0-1.27-2.881L21.387,12.354a4.016,4.016,0,0,0-5.361,0L2.829,24.521A3.917,3.917,0,0,0,1.563,27.4Z" fill="#b7a66d"/>
</svg>
