<svg xmlns="http://www.w3.org/2000/svg" width="25" height="20" viewBox="0 0 25 20">
  <path id="icon_open-account" d="M24.688,8.75H21.25V5.313A.313.313,0,0,0,20.938,5h-.625A.313.313,0,0,0,20,5.313V8.75H16.563a.313.313,0,0,0-.312.313v.625a.313.313,0,0,0,.313.313H20v3.438a.313.313,0,0,0,.313.313h.625a.313.313,0,0,0,.313-.312V10h3.438A.313.313,0,0,0,25,9.688V9.063A.313.313,0,0,0,24.688,8.75ZM12.25,11.25c-1.121,0-1.66.625-3.5.625s-2.375-.625-3.5-.625A5.251,5.251,0,0,0,0,16.5v1.625A1.875,1.875,0,0,0,1.875,20h13.75A1.875,1.875,0,0,0,17.5,18.125V16.5A5.251,5.251,0,0,0,12.25,11.25Zm4,6.875a.627.627,0,0,1-.625.625H1.875a.627.627,0,0,1-.625-.625V16.5a4,4,0,0,1,4-4c.766,0,1.527.625,3.5.625s2.734-.625,3.5-.625a4,4,0,0,1,4,4ZM8.75,10a5,5,0,1,0-5-5A5,5,0,0,0,8.75,10Zm0-8.75A3.75,3.75,0,1,1,5,5,3.756,3.756,0,0,1,8.75,1.25Z" fill="#666"/>
</svg>
