<svg xmlns="http://www.w3.org/2000/svg" width="17.501" height="20" viewBox="0 0 17.501 20">
  <path id="icon_login" d="M8.751,10a5,5,0,1,0-5-5A5,5,0,0,0,8.751,10Zm0-8.751A3.75,3.75,0,1,1,5,5,3.754,3.754,0,0,1,8.751,1.25Zm1.981,10.626H6.77A6.771,6.771,0,0,0,0,18.646,1.354,1.354,0,0,0,1.354,20H16.148A1.352,1.352,0,0,0,17.5,18.646,6.77,6.77,0,0,0,10.731,11.876Zm5.414,6.875H1.354a.1.1,0,0,1-.1-.105,5.527,5.527,0,0,1,5.52-5.52h3.957a5.528,5.528,0,0,1,5.524,5.52A.105.105,0,0,1,16.145,18.751Z" fill="#666"/>
</svg>
