<svg xmlns="http://www.w3.org/2000/svg" width="18.75" height="15" viewBox="0 0 18.75 15">
  <path id="icon_open-account" d="M18.516,6.562H15.938V3.984A.235.235,0,0,0,15.7,3.75h-.469A.235.235,0,0,0,15,3.984V6.562H12.422a.235.235,0,0,0-.234.234v.469a.235.235,0,0,0,.234.234H15v2.578a.235.235,0,0,0,.234.234H15.7a.235.235,0,0,0,.234-.234V7.5h2.578a.235.235,0,0,0,.234-.234V6.8A.235.235,0,0,0,18.516,6.562ZM9.188,8.437c-.841,0-1.245.469-2.625.469s-1.781-.469-2.625-.469A3.939,3.939,0,0,0,0,12.375v1.219A1.407,1.407,0,0,0,1.406,15H11.719a1.407,1.407,0,0,0,1.406-1.406V12.375A3.939,3.939,0,0,0,9.188,8.437Zm3,5.156a.47.47,0,0,1-.469.469H1.406a.47.47,0,0,1-.469-.469V12.375a3,3,0,0,1,3-3,13.992,13.992,0,0,0,2.625.469,14.043,14.043,0,0,0,2.625-.469,3,3,0,0,1,3,3ZM6.562,7.5a3.75,3.75,0,1,0-3.75-3.75A3.75,3.75,0,0,0,6.562,7.5Zm0-6.562A2.812,2.812,0,1,1,3.75,3.75,2.817,2.817,0,0,1,6.562.938Z" fill="#fff"/>
</svg>
