<svg xmlns="http://www.w3.org/2000/svg" width="71.44" height="50" viewBox="0 0 71.44 50">
  <path id="money-check-dollar-pen-thin" d="M57.163,65.786H7.145a5.36,5.36,0,0,0-5.359,5.359V99.727a5.36,5.36,0,0,0,5.359,5.359h30.2l-.447,1.786H7.145A7.148,7.148,0,0,1,0,99.727V71.145A7.145,7.145,0,0,1,7.145,64H57.163a7.148,7.148,0,0,1,7.145,7.145v7.212a8.374,8.374,0,0,0-1.786.447V71.145A5.36,5.36,0,0,0,57.163,65.786Zm-28.581,25.9a.9.9,0,0,1,.893-.893h12.5a.893.893,0,0,1,0,1.786h-12.5A.9.9,0,0,1,28.581,91.688ZM52.7,80.077a.893.893,0,1,1,0,1.786H29.475a.893.893,0,0,1,0-1.786Zm-36.72-6.252a.837.837,0,0,1,.893.893v1.853c.3.022.5.045.715.078.536.089,2.166.4,2.746.558a.891.891,0,0,1-.469,1.719c-.491-.123-2.054-.435-2.557-.514a7.125,7.125,0,0,0-3.952.391,2.683,2.683,0,0,0-1.686,1.9,2.231,2.231,0,0,0,.123,1.362,2.3,2.3,0,0,0,.86.927,14.614,14.614,0,0,0,3.684,1.451h.022a14.5,14.5,0,0,1,4.209,1.675,5.2,5.2,0,0,1,1.44,1.831,5.455,5.455,0,0,1,.246,2.523A4.39,4.39,0,0,1,19.5,93.8a8.13,8.13,0,0,1-2.635.558v1.8a.837.837,0,0,1-.893.893.969.969,0,0,1-.893-.893V94.3a.86.86,0,0,0-.514-.078h0a27.458,27.458,0,0,1-3.579-1.049c-.208-.078-.4-.134-.555-.19a.894.894,0,0,1,.565-1.7c.2-.033.41.134.633.212l.011.011a26.862,26.862,0,0,0,3.2.949,7.5,7.5,0,0,0,3.952-.3,2.809,2.809,0,0,0,1.686-1.987,2.54,2.54,0,0,0-.123-1.507,2.443,2.443,0,0,0-.849-1,12.834,12.834,0,0,0-3.673-1.5l-.19-.156a12.185,12.185,0,0,1-4-1.53,4.973,4.973,0,0,1-1.478-1.641A4,4,0,0,1,9.906,80.4a4.5,4.5,0,0,1,2.609-3.215,6.733,6.733,0,0,1,2.668-.636V74.718a.9.9,0,0,1,.893-.893Zm23.848,39.657a1.894,1.894,0,0,1-.469-1.8l1.675-6.621a4.481,4.481,0,0,1,.938-1.753L62.209,83.17a4.474,4.474,0,0,1,6.319,0l1.6,1.608a4.454,4.454,0,0,1,0,6.319l-20.23,20.23a3.59,3.59,0,0,1-1.664.938l-6.71,1.686a1.823,1.823,0,0,1-1.7-.469Zm1.262-1.273,6.71-1.675a1.792,1.792,0,0,0,.837-.469L64.576,94.111l-5.393-5.393L43.229,104.673a1.8,1.8,0,0,0-.469.826Zm27.778-26.17-1.608-1.608a2.689,2.689,0,0,0-3.785,0l-3.026,3.026,5.393,5.393,3.026-3.014a2.681,2.681,0,0,0,0-3.8ZM47.851,110.757l.38,1.507Z" transform="translate(0 -64)" fill="#b7a66d"/>
</svg>
