<svg xmlns="http://www.w3.org/2000/svg" width="42" height="37.339" viewBox="0 0 42 37.339">
  <path id="hand-holding-seedling-light_i_class_fal_fa-hand-holding-seedling_i_" data-name="hand-holding-seedling-light &lt;i class=&quot;fal fa-hand-holding-seedling&quot;&gt;&lt;/i&gt;" d="M18.148,14h1.684v4.083a.585.585,0,0,0,.583.583h1.167a.585.585,0,0,0,.583-.583V14H23.85C30,14,35,8.239,35,1.167V0H30.981C26.606,0,22.822,2.924,21,7.153,19.176,2.924,15.392,0,11.017,0H7V1.167C7,8.239,12,14,18.148,14ZM30.981,2.333h1.633c-.489,5.242-4.229,9.333-8.757,9.333H22.224C22.705,6.424,26.453,2.333,30.981,2.333Zm-19.964,0c4.528,0,8.268,4.09,8.757,9.333H18.141c-4.528,0-8.268-4.09-8.757-9.333Zm29.69,21.991a3.841,3.841,0,0,0-2.567-.977,4.033,4.033,0,0,0-2.523.89l-4.491,3.595a.778.778,0,0,1-.489.168H27.6a4.059,4.059,0,0,0,.35-2.355,4.2,4.2,0,0,0-4.214-3.478H13.219a6.975,6.975,0,0,0-4.2,1.4l-2.8,2.1H.583A.585.585,0,0,0,0,26.249v1.167A.585.585,0,0,0,.583,28H7l3.42-2.567a4.682,4.682,0,0,1,2.8-.933h10.7a1.75,1.75,0,0,1,0,3.5H17.5a1.167,1.167,0,0,0,0,2.333H30.638a3.143,3.143,0,0,0,1.947-.678l4.491-3.587a1.713,1.713,0,0,1,1.065-.379,1.493,1.493,0,0,1,1.006.379,1.55,1.55,0,0,1-.066,2.377l-7.35,5.884a3.1,3.1,0,0,1-1.947.678H.583A.585.585,0,0,0,0,35.589v1.167a.585.585,0,0,0,.583.583h29.2a5.422,5.422,0,0,0,3.4-1.2l7.357-5.884a3.892,3.892,0,0,0,.168-5.935Z" fill="#809d72"/>
</svg>
