<svg xmlns="http://www.w3.org/2000/svg" width="127.001" height="17" viewBox="0 0 127.001 17">
  <g id="Social_Icons" data-name="Social Icons" transform="translate(-27.934 -30)">
    <path id="logo_footer_social-facebook" d="M25.1,16.552A8.552,8.552,0,1,0,15.216,25V19.024H13.043V16.552h2.172V14.668a3.017,3.017,0,0,1,3.23-3.327,13.161,13.161,0,0,1,1.914.167v2.1H19.281a1.236,1.236,0,0,0-1.393,1.336v1.605H20.26l-.379,2.472H17.888V25A8.555,8.555,0,0,0,25.1,16.552Z" transform="translate(19.934 22)" fill="#fff"/>
    <path id="logo_footer_social-twitter" d="M18.78,52.319c.013.186.013.372.013.558A12.122,12.122,0,0,1,6.588,65.082,12.123,12.123,0,0,1,0,63.156a8.875,8.875,0,0,0,1.036.053,8.591,8.591,0,0,0,5.326-1.833A4.3,4.3,0,0,1,2.351,58.4a5.41,5.41,0,0,0,.81.066,4.537,4.537,0,0,0,1.129-.146,4.29,4.29,0,0,1-3.44-4.21v-.053a4.32,4.32,0,0,0,1.939.545,4.3,4.3,0,0,1-1.328-5.738,12.194,12.194,0,0,0,8.845,4.489,4.843,4.843,0,0,1-.106-.983,4.294,4.294,0,0,1,7.424-2.935A8.446,8.446,0,0,0,20.347,48.4a4.278,4.278,0,0,1-1.886,2.364,8.6,8.6,0,0,0,2.47-.664,9.221,9.221,0,0,1-2.152,2.218Z" transform="translate(134.004 -18.082)" fill="#fff"/>
    <path id="logo_footer_social-linkedin" d="M3.805,17.01H.281V5.66H3.805ZM2.041,4.112A2.051,2.051,0,1,1,4.082,2.051,2.058,2.058,0,0,1,2.041,4.112ZM17,17.01H13.48V11.485c0-1.317-.027-3.005-1.832-3.005-1.832,0-2.113,1.431-2.113,2.911v5.62H6.013V5.66h3.38V7.208h.049a3.7,3.7,0,0,1,3.335-1.833c3.567,0,4.223,2.349,4.223,5.4V17.01Z" transform="translate(99.492 29.99)" fill="#fff"/>
    <path id="logo_footer_social-instagram" d="M8.429,35.966a4.359,4.359,0,1,0,4.359,4.359A4.352,4.352,0,0,0,8.429,35.966Zm0,7.192a2.834,2.834,0,1,1,2.834-2.834,2.839,2.839,0,0,1-2.834,2.834Zm5.553-7.371a1.017,1.017,0,1,1-1.017-1.017A1.014,1.014,0,0,1,13.982,35.788Zm2.887,1.032A5.031,5.031,0,0,0,15.5,33.258a5.064,5.064,0,0,0-3.562-1.373c-1.4-.08-5.61-.08-7.014,0a5.057,5.057,0,0,0-3.562,1.369A5.047,5.047,0,0,0-.015,36.816c-.08,1.4-.08,5.61,0,7.014a5.031,5.031,0,0,0,1.373,3.562A5.071,5.071,0,0,0,4.92,48.765c1.4.08,5.61.08,7.014,0A5.031,5.031,0,0,0,15.5,47.392a5.064,5.064,0,0,0,1.373-3.562C16.949,42.427,16.949,38.223,16.869,36.82Zm-1.813,8.516a2.869,2.869,0,0,1-1.616,1.616c-1.119.444-3.774.341-5.011.341s-3.9.1-5.011-.341A2.869,2.869,0,0,1,1.8,45.336c-.444-1.119-.341-3.774-.341-5.011s-.1-3.9.341-5.011A2.869,2.869,0,0,1,3.418,33.7c1.119-.444,3.774-.341,5.011-.341s3.9-.1,5.011.341a2.869,2.869,0,0,1,1.616,1.616c.444,1.119.341,3.774.341,5.011S15.5,44.221,15.056,45.336Z" transform="translate(64.088 -1.825)" fill="#fff"/>
  </g>
</svg>
