<?xml version="1.0" encoding="utf-8"?>
<!-- Generator: Adobe Illustrator 16.0.0, SVG Export Plug-In . SVG Version: 6.00 Build 0)  -->
<!DOCTYPE svg PUBLIC "-//W3C//DTD SVG 1.1//EN" "http://www.w3.org/Graphics/SVG/1.1/DTD/svg11.dtd">
<svg version="1.1" id="Layer_1" xmlns="http://www.w3.org/2000/svg" xmlns:xlink="http://www.w3.org/1999/xlink" x="0px" y="0px"
	 width="14px" height="16px" viewBox="0 0 14 16" enable-background="new 0 0 14 16" xml:space="preserve">
<path id="_i_class_fa-light_fa-user_i_" fill="#333333" d="M7,8c2.209,0,4-1.791,4-4S9.209,0,7,0S3,1.791,3,4S4.791,8,7,8z M7,1
	c1.656,0,3,1.343,3,3S8.656,7,7,7C5.343,7,4,5.657,4,4S5.343,1,7,1z M8.584,9.5H5.416C2.425,9.5,0,11.925,0,14.916l0,0
	C0,15.514,0.484,16,1.082,16c0,0,0,0,0.001,0h11.835C13.516,16,14,15.517,14,14.919c0-0.001,0-0.002,0-0.004
	C14,11.925,11.575,9.5,8.584,9.5L8.584,9.5z M12.916,15H1.083C1.037,15,1,14.962,1,14.916c0.003-2.438,1.978-4.412,4.416-4.416
	h3.165c2.438,0.002,4.415,1.979,4.419,4.416C13,14.962,12.963,15,12.916,15z"/>
</svg>
