<?xml version="1.0" standalone="no"?>
<!DOCTYPE svg PUBLIC "-//W3C//DTD SVG 20010904//EN"
 "http://www.w3.org/TR/2001/REC-SVG-20010904/DTD/svg10.dtd">
<svg version="1.0" xmlns="http://www.w3.org/2000/svg"
 width="207.000000pt" height="207.000000pt" viewBox="0 0 207.000000 207.000000"
 preserveAspectRatio="xMidYMid meet">
<metadata>
Created by potrace 1.14, written by Peter Selinger 2001-2017
</metadata>
<g transform="translate(0.000000,207.000000) scale(0.100000,-0.100000)"
fill="#000000" stroke="none">
<path d="M1480 2038 c0 -69 -51 -152 -114 -185 -34 -18 -129 -21 -274 -10
-139 11 -162 -8 -211 -163 l-24 -75 -13 45 c-19 61 -9 112 32 166 l34 44 -27
-6 c-92 -22 -130 -71 -140 -182 l-6 -67 -15 35 c-19 46 -18 129 1 167 23 43
71 81 113 89 33 6 194 -1 246 -11 55 -11 206 -14 240 -5 44 12 88 56 105 105
l12 35 -37 -29 c-71 -56 -118 -58 -372 -17 -124 20 -244 18 -305 -5 -105 -40
-160 -121 -159 -234 0 -84 25 -146 102 -248 28 -38 54 -78 57 -89 6 -16 12
-18 38 -13 52 11 120 53 145 88 12 19 33 70 46 115 42 146 64 162 218 161 131
0 187 16 255 76 61 54 88 114 80 176 -6 49 -27 77 -27 37z"/>
<path d="M1510 1870 c0 -20 -49 -77 -88 -102 -63 -42 -127 -58 -231 -58 -138
0 -149 -9 -192 -142 -26 -82 -41 -111 -71 -142 -21 -21 -36 -41 -33 -44 11
-11 80 -4 117 11 30 13 42 27 71 89 51 107 75 123 195 134 37 3 84 10 105 15
48 13 105 63 128 114 20 43 25 120 9 130 -5 3 -10 1 -10 -5z"/>
<path d="M714 1303 c-4 -21 -8 -41 -8 -45 -3 -23 -26 -29 -77 -19 -69 12 -84
0 -84 -69 0 -36 6 -55 21 -72 20 -21 21 -27 9 -64 -17 -57 -6 -78 59 -105 61
-25 63 -31 42 -92 -13 -36 -13 -39 7 -46 12 -4 47 -8 78 -7 55 1 58 0 61 -26
15 -102 13 -597 -3 -716 -3 -18 2 -32 10 -32 18 0 82 198 96 295 7 50 4 504
-4 558 -1 4 -33 7 -72 7 l-71 0 7 28 c4 15 8 32 8 39 0 6 31 21 69 34 68 22
96 39 61 39 -10 0 -36 -7 -58 -15 -56 -20 -99 -18 -155 6 -46 20 -48 22 -39
49 10 27 11 27 47 14 20 -7 47 -13 58 -14 26 0 124 29 142 43 25 19 11 24 -29
10 -85 -29 -125 -28 -185 2 -50 26 -74 48 -62 60 2 3 32 0 65 -5 56 -9 68 -8
140 19 81 30 93 43 69 76 -13 19 -16 19 -65 3 l-51 -16 0 24 c0 27 -40 74 -63
74 -9 0 -18 -15 -23 -37z"/>
</g>
</svg>
