<svg xmlns="http://www.w3.org/2000/svg" width="20" height="20" viewBox="0 0 20 20">
  <path id="icon_apply-online" d="M11.18,5.5a1.818,1.818,0,0,1,2.652,0l.676.68a1.867,1.867,0,0,1,0,2.648L9.574,13.762a1.585,1.585,0,0,1-.871.461l-2.926.766a.638.638,0,0,1-.594-.164.621.621,0,0,1-.164-.594L5.75,11.3a1.866,1.866,0,0,1,.492-.871Zm1.77.883a.632.632,0,0,0-.887,0l-.836.84,1.563,1.563.836-.84a.62.62,0,0,0,0-.883ZM6.961,11.605l-.512,1.918,1.949-.48a.629.629,0,0,0,.289-.164l3.219-3.215L10.344,8.1,7.129,11.316a.622.622,0,0,0-.168.289ZM20,10A10,10,0,1,1,10,0,10,10,0,0,1,20,10ZM10,1.25A8.75,8.75,0,1,0,18.75,10,8.751,8.751,0,0,0,10,1.25Z" fill="#666"/>
</svg>
