<svg xmlns="http://www.w3.org/2000/svg" width="57.143" height="50" viewBox="0 0 57.143 50">
  <path id="icon_auto" d="M14.286,60.571A3.571,3.571,0,1,1,10.714,57,3.568,3.568,0,0,1,14.286,60.571Zm-3.571-1.786A1.786,1.786,0,1,0,12.5,60.571,1.788,1.788,0,0,0,10.714,58.786Zm32.143,1.786a3.571,3.571,0,1,1,3.571,3.571A3.568,3.568,0,0,1,42.857,60.571Zm3.571,1.786a1.786,1.786,0,1,0-1.786-1.786A1.791,1.791,0,0,0,46.429,62.357ZM6.475,50.728l3.686-12.9A8.033,8.033,0,0,1,17.891,32H39.252a7.84,7.84,0,0,1,7.634,5.828l3.683,12.9a10.656,10.656,0,0,1,6.574,9.844V81.107a.893.893,0,1,1-1.786,0V73.071H1.786v8.036a.893.893,0,1,1-1.786,0V60.571a10.719,10.719,0,0,1,6.475-9.844Zm2.041-.647a10.961,10.961,0,0,1,2.2-.223H46.429a11.047,11.047,0,0,1,2.2.223L45.268,38.319a6.26,6.26,0,0,0-6.016-4.533H17.891a6.26,6.26,0,0,0-6.016,4.533Zm37.912,1.563H10.714a8.928,8.928,0,0,0-8.929,8.929V71.286H55.357V60.571A8.926,8.926,0,0,0,46.429,51.643Z" transform="translate(0 -32)" fill="#b7a66d"/>
</svg>
