<svg xmlns="http://www.w3.org/2000/svg" width="53.333" height="50" viewBox="0 0 53.333 50">
  <path id="icon_business" d="M48.333,10H40V4.167A4.168,4.168,0,0,0,35.833,0H17.5a4.168,4.168,0,0,0-4.167,4.167V10H5a5,5,0,0,0-5,5V45a5,5,0,0,0,5,5H48.333a5,5,0,0,0,5-5V15A5,5,0,0,0,48.333,10ZM15,4.167a2.5,2.5,0,0,1,2.5-2.5H35.833a2.5,2.5,0,0,1,2.5,2.5V10H15ZM51.667,45a3.338,3.338,0,0,1-3.333,3.333H5A3.338,3.338,0,0,1,1.667,45V28.333H18.333v5.833a2.507,2.507,0,0,0,2.5,2.5H32.5a2.5,2.5,0,0,0,2.5-2.5V28.333H51.667ZM33.333,28.333v5.833A.835.835,0,0,1,32.5,35H20.833A.836.836,0,0,1,20,34.167V28.333ZM1.667,26.667V15A3.338,3.338,0,0,1,5,11.667H48.333A3.338,3.338,0,0,1,51.667,15V26.667Z" fill="#b7a66d"/>
</svg>
