<svg xmlns="http://www.w3.org/2000/svg" width="42.14" height="49.716" viewBox="0 0 42.14 49.716">
  <path id="icon_clipboard" d="M28.125,5.357H20.709a4.425,4.425,0,0,0,.05-.67,4.688,4.688,0,0,0-9.375,0,4.425,4.425,0,0,0,.05.67H4.018A4.019,4.019,0,0,0,0,9.375V38.839a4.019,4.019,0,0,0,4.018,4.018H28.125a4.019,4.019,0,0,0,4.018-4.018V9.375A4.019,4.019,0,0,0,28.125,5.357ZM16.071,2.679a2.009,2.009,0,1,1-2.009,2.009A2,2,0,0,1,16.071,2.679ZM29.464,38.839a1.343,1.343,0,0,1-1.339,1.339H4.018a1.343,1.343,0,0,1-1.339-1.339V9.375A1.343,1.343,0,0,1,4.018,8.036H8.036V9.71a1.007,1.007,0,0,0,1,1H23.1a1.007,1.007,0,0,0,1-1V8.036h4.018a1.343,1.343,0,0,1,1.339,1.339ZM9.375,27.455a2.009,2.009,0,1,0,2.009,2.009A2,2,0,0,0,9.375,27.455Zm14.062.67H14.062a.672.672,0,0,0-.67.67v1.339a.672.672,0,0,0,.67.67h9.375a.672.672,0,0,0,.67-.67V28.795A.672.672,0,0,0,23.437,28.125ZM10.564,22.634l5.374-5.324a.45.45,0,0,0,0-.636l-1.055-1.063a.45.45,0,0,0-.636,0l-3.984,3.951L8.538,17.812a.45.45,0,0,0-.636,0L6.839,18.867a.45.45,0,0,0,0,.636l3.105,3.131A.43.43,0,0,0,10.564,22.634Zm12.874-2.545h-6.5l-2.7,2.679h9.2a.672.672,0,0,0,.67-.67V20.759A.672.672,0,0,0,23.437,20.089Z" transform="matrix(0.966, -0.259, 0.259, 0.966, 0, 8.319)" fill="#809d72"/>
</svg>
