<svg xmlns="http://www.w3.org/2000/svg" width="64.286" height="50" viewBox="0 0 64.286 50">
  <path id="icon_credit-cards" d="M10.714,61.464a.894.894,0,0,1,.893-.893H52.679a.893.893,0,0,1,0,1.786H11.607A.894.894,0,0,1,10.714,61.464Zm0,7.143a.894.894,0,0,1,.893-.893h8.929a.893.893,0,1,1,0,1.786H11.607A.894.894,0,0,1,10.714,68.607Zm31.25-.893a.893.893,0,1,1,0,1.786H25.893a.893.893,0,1,1,0-1.786Zm.893-24.107a4.463,4.463,0,0,1,4.464-4.464h5.357a4.463,4.463,0,0,1,4.464,4.464v3.571a4.463,4.463,0,0,1-4.464,4.464H47.321a4.463,4.463,0,0,1-4.464-4.464Zm1.786,0v3.571a2.672,2.672,0,0,0,2.679,2.679h5.357a2.672,2.672,0,0,0,2.679-2.679V43.607a2.672,2.672,0,0,0-2.679-2.679H47.321A2.672,2.672,0,0,0,44.643,43.607ZM57.143,32a7.146,7.146,0,0,1,7.143,7.143V74.857A7.149,7.149,0,0,1,57.143,82h-50A7.146,7.146,0,0,1,0,74.857V39.143A7.142,7.142,0,0,1,7.143,32Zm0,1.786h-50a5.357,5.357,0,0,0-5.357,5.357V74.857a5.358,5.358,0,0,0,5.357,5.357h50A5.359,5.359,0,0,0,62.5,74.857V39.143A5.358,5.358,0,0,0,57.143,33.786Z" transform="translate(0 -32)" fill="#b7a66d"/>
</svg>
