<svg id="icon_primary" xmlns="http://www.w3.org/2000/svg" width="19.15" height="40" viewBox="0 0 19.15 40">
  <path id="Path_596" data-name="Path 596" d="M69.816.915c-2.162,3.226-6.463.583-11.665.692-2.56.053-5.325,1.593-5.267,5.133a7.011,7.011,0,0,0,1.244,3.576c.312.443,2.226,2.669,1.987,3.146,0,0,3.187-.3,3.978-2.763s.764-4.591,3.733-4.462c0,0,3.189.415,4.913-.686,1.9-1.218,3.41-3.358,2-5.471,0,0,.168,4.122-3.5,4.549A38.974,38.974,0,0,1,62.3,4.383a2.4,2.4,0,0,0-2.71,1.711l-.973,2.892a4.294,4.294,0,0,1-.5-2.14A3.964,3.964,0,0,1,59.7,4.241,3.022,3.022,0,0,0,56.658,6.2a9.363,9.363,0,0,0-.312,3.074S54.389,5.912,57.06,3.9a3.636,3.636,0,0,1,2.54-.559s4.785.455,5.329.52a7.431,7.431,0,0,0,3.046-.208A3.2,3.2,0,0,0,69.814.93" transform="translate(-52.453 -0.079)" fill="#fff"/>
  <path id="Path_597" data-name="Path 597" d="M68.876,2.13a5.054,5.054,0,0,1-3.038,2.995,9.862,9.862,0,0,1-4.259.47,2.188,2.188,0,0,0-2.547,1.888A16.08,16.08,0,0,1,57.9,10.623a2.9,2.9,0,0,1-1.419,1.17,2.909,2.909,0,0,0,2.605-.051c.983-.448,1.455-2.063,1.726-2.629s.849-1.522,2.871-1.684,2.991-.177,3.935-1.078a3.884,3.884,0,0,0,1.289-4.114" transform="translate(-49.879 1.39)" fill="#fff"/>
  <path id="Path_598" data-name="Path 598" d="M56.206,8.287s-.307,1.436-.371,1.63-.017.678-1.033.484-1.388-.259-1.388-.259-.354-.033-.547.453a2.123,2.123,0,0,0,.709,2.823l-.354,1.162s-.436,1.066.467,1.419c1.057.415,1.726.743,1.726.743s.29.065.178.4c-.127.378-.451,1.145-.451,1.145s-.388.776.661.807,2.291.065,2.291.065.316,5.416.29,7.1c-.033,2.13-.275,5.55-.323,6.276s-.082,1.647.113,1.663.523-.565.839-1.613a27.431,27.431,0,0,0,1.129-4.647c.074-1.424.129-4.1.048-5.89s-.1-3.485-.113-3.856.13-.774-.693-.759-1.661.065-1.888.065-.419.048-.209-.484.275-.776.275-.776a.777.777,0,0,0-.017-.323c-.043-.079.469-.113,1.018-.29s.935-.323,1.242-.451.628-.29.565-.42-.453-.033-.71.05-1.388.451-1.678.5a2.712,2.712,0,0,1-1.306-.081c-.549-.178-1.678-.693-1.678-.693l.419-1.129s.638.305.776.355a2.949,2.949,0,0,0,1.968.046,14.228,14.228,0,0,0,1.726-.644c.177-.081.5-.227.419-.355s-.355-.065-.58.015-1.308.388-1.534.451a2.491,2.491,0,0,1-1.968-.129c-.918-.484-1.3-.767-1.484-.855-.275-.129-.489-.781.275-.613.807.177.92.192,1.308.257a2.292,2.292,0,0,0,1.419-.161c.839-.275,2.533-.937,2.533-.937s-.144-.482-.225-.709-.292-.565-.97-.34-1.419.453-1.419.453-.015-.469-.015-.645-.178-1-1.436-1.308" transform="translate(-52.632 5.799)" fill="#fff"/>
</svg>
