<?xml version="1.0" encoding="utf-8"?>
<!-- Generator: Adobe Illustrator 16.0.0, SVG Export Plug-In . SVG Version: 6.00 Build 0)  -->
<!DOCTYPE svg PUBLIC "-//W3C//DTD SVG 1.1//EN" "http://www.w3.org/Graphics/SVG/1.1/DTD/svg11.dtd">
<svg version="1.1" id="Customer_Care_-_Icon" xmlns="http://www.w3.org/2000/svg" xmlns:xlink="http://www.w3.org/1999/xlink"
	 x="0px" y="0px" width="20px" height="20px" viewBox="0 0 20 20" enable-background="new 0 0 20 20" xml:space="preserve">
<path id="icon_customer-care" fill="#FFFFFF" d="M10,0C4.477,0,0,4.477,0,10c0,5.523,4.477,10,10,10c5.523,0,10-4.477,10-10
	C20,4.477,15.523,0,10,0z M10,18.75c-4.833,0-8.75-3.918-8.75-8.75c0-4.833,3.917-8.75,8.75-8.75c4.832,0,8.75,3.917,8.75,8.75
	C18.744,14.83,14.83,18.744,10,18.75z M9.375,13.438c-0.518,0-0.938,0.42-0.938,0.938s0.42,0.938,0.938,0.938
	s0.938-0.42,0.938-0.938l0,0C10.313,13.857,9.893,13.438,9.375,13.438z M11.156,5H8.844C7.413,5.003,6.253,6.163,6.25,7.594v0.375
	c0,0.345,0.28,0.625,0.625,0.625S7.5,8.314,7.5,7.969l0,0V7.594c0-0.742,0.602-1.344,1.344-1.344h2.314
	c0.742,0.006,1.339,0.612,1.334,1.354c-0.004,0.471-0.254,0.905-0.659,1.146l-2.36,1.184c-0.446,0.249-0.723,0.719-0.723,1.23v0.711
	c0,0.346,0.28,0.625,0.625,0.625S10,12.221,10,11.875v-0.711c-0.001-0.048,0.02-0.094,0.056-0.124l2.36-1.18
	c1.252-0.695,1.703-2.273,1.008-3.525C12.967,5.51,12.098,5,11.156,5z"/>
</svg>
