<svg xmlns="http://www.w3.org/2000/svg" width="50.271" height="44.21" viewBox="0 0 50.271 44.21">
  <path id="money-check-edit-light_i_class_fal_fa-money-check-edit_i_" data-name="money-check-edit-light &lt;i class=&quot;fal fa-money-check-edit&quot;&gt;&lt;/i&gt;" d="M28.475,27.221A2.147,2.147,0,0,0,30,27.857h4.286a2.143,2.143,0,0,0,2.143-2.143V21.429a2.143,2.143,0,0,0-.636-1.524L16.519.809a2.756,2.756,0,0,0-3.9,0L9.379,4.05a2.778,2.778,0,0,0-.808,1.97A2.724,2.724,0,0,0,9.4,7.969ZM19.383,6.7l14.9,14.732v4.286H30L15.275,10.808,19.383,6.7ZM10.894,5.564l3.24-3.241a.617.617,0,0,1,.437-.18.6.6,0,0,1,.432.18l2.982,2.983-4.109,4.11L10.894,6.434a.615.615,0,0,1,0-.869ZM8.571,27.322a.536.536,0,0,0,.536.536H26.09l-2.123-2.143H9.107a.536.536,0,0,0-.536.536Zm.536-5.893H19.72L17.6,19.286H9.107a.536.536,0,0,0-.536.536v1.071A.536.536,0,0,0,9.107,21.429ZM40.714,8.572H27.4l2.163,2.143H40.714V32.143H2.143V10.715H9.107L7.9,9.5a4.905,4.905,0,0,1-.728-.929H2.143A2.143,2.143,0,0,0,0,10.715V32.143a2.143,2.143,0,0,0,2.143,2.143H40.714a2.143,2.143,0,0,0,2.143-2.143V10.715A2.143,2.143,0,0,0,40.714,8.572Z" transform="matrix(0.966, 0.259, -0.259, 0.966, 8.874, 0)" fill="#809d72"/>
</svg>
