<svg id="Locations_-_Icon" data-name="Locations - Icon" xmlns="http://www.w3.org/2000/svg" width="15.039" height="20" viewBox="0 0 15.039 20">
  <path id="icon_location" d="M10.653,7.519A3.133,3.133,0,1,1,7.519,4.386,3.132,3.132,0,0,1,10.653,7.519ZM7.519,9.4a1.88,1.88,0,1,0-1.88-1.88A1.88,1.88,0,0,0,7.519,9.4Zm7.519-1.88c0,3.423-4.582,9.517-6.591,12.031a1.183,1.183,0,0,1-1.856,0C4.547,17.036,0,10.942,0,7.519a7.519,7.519,0,0,1,15.039,0ZM7.519,1.253A6.264,6.264,0,0,0,1.253,7.519,6.874,6.874,0,0,0,1.9,10a24.261,24.261,0,0,0,1.707,3.215A58.574,58.574,0,0,0,7.519,18.7a58.84,58.84,0,0,0,3.912-5.487A24.36,24.36,0,0,0,13.136,10a6.825,6.825,0,0,0,.65-2.483A6.264,6.264,0,0,0,7.519,1.253Z" fill="#333"/>
</svg>
