<?xml version="1.0" encoding="utf-8"?>
<!-- Generator: Adobe Illustrator 16.0.0, SVG Export Plug-In . SVG Version: 6.00 Build 0)  -->
<!DOCTYPE svg PUBLIC "-//W3C//DTD SVG 1.1//EN" "http://www.w3.org/Graphics/SVG/1.1/DTD/svg11.dtd">
<svg version="1.1" id="Layer_1" xmlns="http://www.w3.org/2000/svg" xmlns:xlink="http://www.w3.org/1999/xlink" x="0px" y="0px"
	 width="25px" height="20px" viewBox="0 0 25 20" enable-background="new 0 0 25 20" xml:space="preserve">
<path id="icon_open-account" fill="#417630" d="M24.688,8.75H21.25V5.313C21.25,5.141,21.11,5,20.938,5h-0.625
	C20.141,5,20,5.14,20,5.313V8.75h-3.438c-0.172,0-0.312,0.141-0.312,0.313v0.625c0,0.173,0.14,0.313,0.313,0.313H20v3.438
	c0,0.172,0.141,0.313,0.313,0.313h0.625c0.173,0,0.313-0.14,0.313-0.313V10h3.438C24.861,9.999,25,9.86,25,9.688V9.063
	C25,8.891,24.86,8.75,24.688,8.75z M12.25,11.25c-1.121,0-1.66,0.625-3.5,0.625s-2.375-0.625-3.5-0.625C2.351,11.25,0,13.601,0,16.5
	v1.625C0,19.16,0.839,20,1.875,20l0,0h13.75c1.035,0,1.875-0.84,1.875-1.875l0,0V16.5C17.5,13.601,15.149,11.25,12.25,11.25z
	 M16.25,18.125c-0.001,0.345-0.28,0.624-0.625,0.625H1.875c-0.345-0.001-0.624-0.28-0.625-0.625V16.5c0-2.209,1.791-4,4-4
	c0.766,0,1.527,0.625,3.5,0.625s2.734-0.625,3.5-0.625c2.209,0,4,1.791,4,4V18.125z M8.75,10c2.761,0,5-2.239,5-5s-2.239-5-5-5
	s-5,2.239-5,5S5.989,10,8.75,10z M8.75,1.25c2.071,0,3.75,1.679,3.75,3.75s-1.679,3.75-3.75,3.75S5,7.071,5,5
	C5.003,2.93,6.68,1.253,8.75,1.25z"/>
</svg>
