<svg xmlns="http://www.w3.org/2000/svg" width="44.66" height="37.56" viewBox="0 0 44.66 37.56">
  <path id="np_newspaper_885451_000000" d="M11.359,5.859A2.3,2.3,0,0,0,9.052,8.167V38.338a3.017,3.017,0,1,1-6.034,0V18.815A1.258,1.258,0,0,1,4.26,17.573H6.035a.532.532,0,0,0,0-1.065H4.26a2.3,2.3,0,0,0-2.307,2.307V38.338A4.106,4.106,0,0,0,6.035,42.42h35.5a4.106,4.106,0,0,0,4.082-4.082V8.166a2.3,2.3,0,0,0-2.307-2.307Zm0,1.065H43.3a1.258,1.258,0,0,1,1.242,1.242V38.338a3.015,3.015,0,0,1-3.017,3.017H8.768a4.073,4.073,0,0,0,1.349-3.017V8.167a1.258,1.258,0,0,1,1.242-1.242Zm3.55,4.259a.546.546,0,0,0-.532.532V20.59a.546.546,0,0,0,.532.532H39.756a.546.546,0,0,0,.532-.532V11.716a.546.546,0,0,0-.532-.532Zm.532,1.065H39.223v7.809H15.441Zm-.532,13.133a.546.546,0,0,0-.532.532V36.563a.546.546,0,0,0,.532.532H27.332a.546.546,0,0,0,.532-.532V25.914a.546.546,0,0,0-.532-.532Zm15.618,0a.532.532,0,1,0,0,1.065H39.4a.532.532,0,1,0,0-1.065ZM15.441,26.447H26.8v9.584H15.441Zm15.086,2.485a.532.532,0,1,0,0,1.065H39.4a.532.532,0,1,0,0-1.065Zm0,3.55a.532.532,0,1,0,0,1.065H39.4a.532.532,0,1,0,0-1.065Zm0,3.55a.532.532,0,1,0,0,1.065H39.4a.532.532,0,1,0,0-1.065Z" transform="translate(-1.453 -5.359)" fill="#809d72" stroke="#809d72" stroke-width="1"/>
</svg>
