<?xml version="1.0" encoding="utf-8"?>
<!-- Generator: Adobe Illustrator 16.0.0, SVG Export Plug-In . SVG Version: 6.00 Build 0)  -->
<!DOCTYPE svg PUBLIC "-//W3C//DTD SVG 1.1//EN" "http://www.w3.org/Graphics/SVG/1.1/DTD/svg11.dtd">
<svg version="1.1" id="Layer_1" xmlns="http://www.w3.org/2000/svg" xmlns:xlink="http://www.w3.org/1999/xlink" x="0px" y="0px"
	 width="18.75px" height="15px" viewBox="0 0 18.75 15" enable-background="new 0 0 18.75 15" xml:space="preserve">
<path id="icon_open-account" fill="#417630" d="M18.516,6.562h-2.578V3.984c0-0.13-0.104-0.234-0.234-0.234
	c-0.001,0-0.001,0-0.002,0H15.23C15.104,3.752,15,3.856,15,3.984v2.578h-2.578c-0.129,0-0.232,0.105-0.234,0.234v0.469
	c0.002,0.129,0.105,0.233,0.234,0.234H15v2.578c0,0.129,0.105,0.233,0.234,0.233H15.7c0.129,0,0.233-0.104,0.233-0.233V7.5h2.578
	c0.129,0,0.233-0.105,0.233-0.234V6.8C18.748,6.671,18.645,6.565,18.516,6.562z M9.188,8.438c-0.841,0-1.245,0.47-2.625,0.47
	s-1.781-0.47-2.625-0.47C1.763,8.438,0,10.2,0,12.375v1.219C0,14.37,0.63,15,1.406,15h10.313c0.776,0,1.406-0.63,1.406-1.406v-1.219
	C13.125,10.201,11.361,8.438,9.188,8.438z M12.188,13.593c0,0.259-0.209,0.47-0.469,0.47H1.406c-0.259,0-0.468-0.211-0.469-0.47
	v-1.218c0-1.656,1.343-3,3-3c0.858,0.24,1.737,0.396,2.625,0.469C7.45,9.771,8.329,9.614,9.187,9.375c1.657,0,3,1.344,3,3V13.593
	L12.188,13.593z M6.562,7.5c2.071,0,3.75-1.679,3.75-3.75S8.633,0,6.562,0s-3.75,1.679-3.75,3.75S4.491,7.5,6.562,7.5z M6.562,0.938
	c1.553,0,2.812,1.259,2.812,2.812S8.115,6.562,6.562,6.562S3.75,5.303,3.75,3.75l0,0C3.753,2.198,5.01,0.941,6.562,0.938z"/>
</svg>
