<svg xmlns="http://www.w3.org/2000/svg" width="56.25" height="50" viewBox="0 0 56.25 50">
  <path id="piggy-bank-thin" d="M16.406,11.719a.784.784,0,0,1-.781-.781A10.939,10.939,0,0,1,37.373,9.256a.785.785,0,0,1-.742.891.735.735,0,0,1-.8-.652,9.448,9.448,0,0,0-9.268-7.932,9.32,9.32,0,0,0-9.375,9.375.784.784,0,0,1-.781.781ZM37.5,25a3.125,3.125,0,1,1,3.125,3.125A3.122,3.122,0,0,1,37.5,25Zm3.125,1.563A1.563,1.563,0,1,0,39.063,25,1.567,1.567,0,0,0,40.625,26.563ZM20.313,50H17.188A4.689,4.689,0,0,1,12.5,45.313V40.625a15.608,15.608,0,0,1-6.25-12.5H5.078a5.078,5.078,0,0,1,0-10.156h.391a.781.781,0,0,1,0,1.563H5.078a3.516,3.516,0,0,0,0,7.031H6.327A15.621,15.621,0,0,1,21.875,12.5H36.758A9.384,9.384,0,0,1,43.75,9.375h1.689a2.339,2.339,0,0,1,2.266,2.91l-.83,3.252a17.4,17.4,0,0,1,4.951,6.338h1.3A3.122,3.122,0,0,1,56.25,25v9.375A3.122,3.122,0,0,1,53.125,37.5H50a16.407,16.407,0,0,1-6.25,4.951v2.861A4.689,4.689,0,0,1,39.063,50H35.938a4.689,4.689,0,0,1-4.687-4.687V43.75H25v1.563A4.689,4.689,0,0,1,20.313,50ZM37.461,14.063H21.875a14.062,14.062,0,0,0-8.437,25.313l.625.469v5.469a3.122,3.122,0,0,0,3.125,3.125h3.125a3.122,3.122,0,0,0,3.125-3.125V43.75h-.781a.781.781,0,0,1,0-1.562H33.594a.781.781,0,0,1,0,1.563h-.781v1.563a3.122,3.122,0,0,0,3.125,3.125h3.125a3.122,3.122,0,0,0,3.125-3.125V41.426l.938-.41a14.054,14.054,0,0,0,5.625-4.453l.469-.625h3.906a1.567,1.567,0,0,0,1.563-1.562V25a1.567,1.567,0,0,0-1.562-1.562H50.8l-.41-.937a14.054,14.054,0,0,0-4.453-5.625l-.83-.625L46.191,11.9a.775.775,0,0,0-.752-.967H43.75a7.769,7.769,0,0,0-5.82,2.607Z" fill="#b7a66d"/>
</svg>
