<?xml version="1.0" encoding="utf-8"?>
<!-- Generator: Adobe Illustrator 16.0.0, SVG Export Plug-In . SVG Version: 6.00 Build 0)  -->
<!DOCTYPE svg PUBLIC "-//W3C//DTD SVG 1.1//EN" "http://www.w3.org/Graphics/SVG/1.1/DTD/svg11.dtd">
<svg version="1.1" id="Layer_1" xmlns="http://www.w3.org/2000/svg" xmlns:xlink="http://www.w3.org/1999/xlink" x="0px" y="0px"
	 width="127px" height="17px" viewBox="0 0 127 17" enable-background="new 0 0 127 17" xml:space="preserve">
<g id="Social_Icons" transform="translate(-27.934 -30)">
	<path id="logo_footer_social-facebook" fill="#B7A66D" d="M45.034,38.552c0-4.723-3.829-8.552-8.552-8.551
		c-4.723,0-8.552,3.829-8.552,8.552c0,4.209,3.063,7.792,7.22,8.447v-5.977h-2.173v-2.472h2.172v-1.884
		c-0.176-1.657,1.024-3.143,2.682-3.319c0.182-0.02,0.366-0.022,0.548-0.008c0.642,0.009,1.281,0.065,1.914,0.167v2.1h-1.078
		c-0.676-0.089-1.298,0.387-1.387,1.063c-0.012,0.09-0.014,0.182-0.005,0.272v1.605h2.372l-0.379,2.473h-1.993V47
		C41.976,46.34,45.034,42.758,45.034,38.552z"/>
	<path id="logo_footer_social-twitter" fill="#B7A66D" d="M152.784,34.237c0.013,0.186,0.013,0.372,0.013,0.558
		c0.046,6.695-5.344,12.159-12.038,12.205c-0.056,0-0.111,0-0.166,0c-2.336,0.006-4.624-0.662-6.589-1.926
		c0.345,0.037,0.69,0.055,1.036,0.053c1.932,0.005,3.807-0.641,5.326-1.833c-1.836-0.034-3.446-1.229-4.012-2.976
		c0.269,0.042,0.539,0.064,0.811,0.065c0.381-0.001,0.76-0.05,1.129-0.146c-2.003-0.405-3.442-2.167-3.439-4.21v-0.053
		c0.594,0.332,1.258,0.519,1.938,0.545c-1.889-1.262-2.47-3.775-1.328-5.738c2.179,2.682,5.394,4.313,8.845,4.489
		c-0.068-0.323-0.104-0.653-0.105-0.983c0.002-2.372,1.928-4.292,4.299-4.29c1.184,0.001,2.314,0.491,3.125,1.354
		c0.961-0.185,1.883-0.535,2.723-1.035c-0.319,0.992-0.99,1.832-1.886,2.364c0.853-0.097,1.685-0.321,2.47-0.664
		C154.348,32.873,153.62,33.623,152.784,34.237L152.784,34.237z"/>
	<path id="logo_footer_social-linkedin" fill="#B7A66D" d="M103.297,47h-3.524V35.65h3.524V47z M101.533,34.102
		c-1.133,0.005-2.056-0.908-2.062-2.041c-0.005-1.133,0.908-2.056,2.041-2.061s2.056,0.908,2.062,2.041
		C103.575,33.172,102.664,34.093,101.533,34.102z M116.492,47h-3.521v-5.525c0-1.316-0.026-3.005-1.832-3.005
		c-1.832,0-2.113,1.431-2.113,2.911v5.62h-3.521V35.65h3.381v1.548h0.049c0.688-1.18,1.97-1.885,3.334-1.833
		c3.567,0,4.224,2.349,4.224,5.4V47z"/>
	<path id="logo_footer_social-instagram" fill="#B7A66D" d="M72.517,34.141c-2.407,0-4.359,1.952-4.359,4.359
		s1.952,4.359,4.359,4.359s4.359-1.952,4.359-4.359c0.004-2.403-1.941-4.355-4.345-4.359C72.526,34.141,72.522,34.141,72.517,34.141
		z M72.517,41.333c-1.565,0-2.834-1.269-2.834-2.834s1.269-2.834,2.834-2.834s2.834,1.269,2.834,2.834l0,0
		C75.348,40.063,74.081,41.33,72.517,41.333z M78.07,33.962c0,0.562-0.456,1.017-1.017,1.017c-0.562,0-1.017-0.456-1.017-1.017
		s0.455-1.017,1.017-1.017l0,0c0.56-0.001,1.015,0.451,1.017,1.011C78.07,33.958,78.07,33.96,78.07,33.962L78.07,33.962z
		 M80.957,34.994c0.029-1.321-0.463-2.6-1.369-3.561c-0.962-0.905-2.241-1.397-3.562-1.373c-1.4-0.08-5.61-0.08-7.014,0
		c-1.321-0.026-2.599,0.465-3.562,1.369c-0.908,0.961-1.402,2.24-1.377,3.562c-0.08,1.4-0.08,5.61,0,7.014
		c-0.028,1.321,0.465,2.601,1.373,3.562c0.963,0.904,2.241,1.397,3.562,1.373c1.4,0.08,5.61,0.08,7.014,0
		c1.323,0.029,2.604-0.464,3.566-1.373c0.905-0.962,1.398-2.24,1.373-3.562C81.037,40.602,81.037,36.398,80.957,34.994
		L80.957,34.994z M79.144,43.51c-0.292,0.739-0.877,1.324-1.616,1.616c-1.119,0.444-3.774,0.341-5.011,0.341s-3.9,0.1-5.011-0.341
		c-0.74-0.291-1.326-0.876-1.618-1.615c-0.444-1.118-0.341-3.774-0.341-5.011c0-1.237-0.1-3.9,0.341-5.011
		c0.292-0.739,0.878-1.324,1.618-1.614c1.119-0.444,3.774-0.341,5.011-0.341s3.9-0.1,5.011,0.341
		c0.739,0.292,1.324,0.877,1.616,1.616c0.444,1.119,0.341,3.774,0.341,5.011C79.485,39.739,79.588,42.396,79.144,43.51L79.144,43.51
		z"/>
</g>
</svg>
