<?xml version="1.0" encoding="utf-8"?>
<!-- Generator: Adobe Illustrator 16.0.0, SVG Export Plug-In . SVG Version: 6.00 Build 0)  -->
<!DOCTYPE svg PUBLIC "-//W3C//DTD SVG 1.1//EN" "http://www.w3.org/Graphics/SVG/1.1/DTD/svg11.dtd">
<svg version="1.1" id="Layer_1" xmlns="http://www.w3.org/2000/svg" xmlns:xlink="http://www.w3.org/1999/xlink" x="0px" y="0px"
	 width="127px" height="36.833px" viewBox="0 0 127 36.833" enable-background="new 0 0 127 36.833" xml:space="preserve">
<g id="Social_Icons" transform="translate(-27.934 -30)">
	<path id="logo_footer_social-facebook" fill="#FFFFFF" d="M45.034,38.552c0-4.723-3.829-8.552-8.552-8.551
		c-4.723,0-8.552,3.829-8.552,8.552c0,4.209,3.063,7.792,7.22,8.447v-5.977h-2.173v-2.472h2.172v-1.884
		c-0.176-1.657,1.024-3.143,2.682-3.319c0.182-0.02,0.366-0.022,0.548-0.008c0.642,0.009,1.281,0.065,1.914,0.167v2.1h-1.078
		c-0.676-0.089-1.298,0.387-1.387,1.063c-0.012,0.09-0.014,0.182-0.005,0.272v1.605h2.372l-0.379,2.473h-1.993V47
		C41.976,46.34,45.034,42.758,45.034,38.552z"/>
	<path id="logo_footer_social-twitter" fill="#FFFFFF" d="M152.784,34.237c0.013,0.186,0.013,0.372,0.013,0.558
		c0.046,6.695-5.344,12.159-12.038,12.205c-0.056,0-0.111,0-0.166,0c-2.336,0.006-4.624-0.662-6.589-1.926
		c0.345,0.037,0.69,0.055,1.036,0.053c1.932,0.005,3.807-0.641,5.326-1.833c-1.836-0.034-3.446-1.229-4.012-2.976
		c0.269,0.042,0.539,0.064,0.811,0.065c0.381-0.001,0.76-0.05,1.129-0.146c-2.003-0.405-3.442-2.167-3.439-4.21v-0.053
		c0.594,0.332,1.258,0.519,1.938,0.545c-1.889-1.262-2.47-3.775-1.328-5.738c2.179,2.682,5.394,4.313,8.845,4.489
		c-0.068-0.323-0.104-0.653-0.105-0.983c0.002-2.372,1.928-4.292,4.299-4.29c1.184,0.001,2.314,0.491,3.125,1.354
		c0.961-0.185,1.883-0.535,2.723-1.035c-0.319,0.992-0.99,1.832-1.886,2.364c0.853-0.097,1.685-0.321,2.47-0.664
		C154.348,32.873,153.62,33.623,152.784,34.237L152.784,34.237z"/>
	<path id="logo_footer_social-linkedin" fill="#FFFFFF" d="M103.297,47h-3.524V35.65h3.524V47z M101.533,34.102
		c-1.133,0.005-2.056-0.908-2.062-2.041c-0.005-1.133,0.908-2.056,2.041-2.061s2.056,0.908,2.062,2.041
		C103.575,33.172,102.664,34.093,101.533,34.102z M116.492,47h-3.521v-5.525c0-1.316-0.026-3.005-1.832-3.005
		c-1.832,0-2.113,1.431-2.113,2.911v5.62h-3.521V35.65h3.381v1.548h0.049c0.688-1.18,1.97-1.885,3.334-1.833
		c3.567,0,4.224,2.349,4.224,5.4V47z"/>
	<path id="logo_footer_social-instagram" fill="#FFFFFF" d="M72.517,34.141c-2.407,0-4.359,1.952-4.359,4.359
		s1.952,4.359,4.359,4.359s4.359-1.952,4.359-4.359c0.004-2.403-1.941-4.355-4.345-4.359C72.526,34.141,72.522,34.141,72.517,34.141
		z M72.517,41.333c-1.565,0-2.834-1.269-2.834-2.834s1.269-2.834,2.834-2.834s2.834,1.269,2.834,2.834l0,0
		C75.348,40.063,74.081,41.33,72.517,41.333z M78.07,33.962c0,0.562-0.456,1.017-1.017,1.017c-0.562,0-1.017-0.456-1.017-1.017
		s0.455-1.017,1.017-1.017l0,0c0.56-0.001,1.015,0.451,1.017,1.011C78.07,33.958,78.07,33.96,78.07,33.962L78.07,33.962z
		 M80.957,34.994c0.029-1.321-0.463-2.6-1.369-3.561c-0.962-0.905-2.241-1.397-3.562-1.373c-1.4-0.08-5.61-0.08-7.014,0
		c-1.321-0.026-2.599,0.465-3.562,1.369c-0.908,0.961-1.402,2.24-1.377,3.562c-0.08,1.4-0.08,5.61,0,7.014
		c-0.028,1.321,0.465,2.601,1.373,3.562c0.963,0.904,2.241,1.397,3.562,1.373c1.4,0.08,5.61,0.08,7.014,0
		c1.323,0.029,2.604-0.464,3.566-1.373c0.905-0.962,1.398-2.24,1.373-3.562C81.037,40.602,81.037,36.398,80.957,34.994
		L80.957,34.994z M79.144,43.51c-0.292,0.739-0.877,1.324-1.616,1.616c-1.119,0.444-3.774,0.341-5.011,0.341s-3.9,0.1-5.011-0.341
		c-0.74-0.291-1.326-0.876-1.618-1.615c-0.444-1.118-0.341-3.774-0.341-5.011c0-1.237-0.1-3.9,0.341-5.011
		c0.292-0.739,0.878-1.324,1.618-1.614c1.119-0.444,3.774-0.341,5.011-0.341s3.9-0.1,5.011,0.341
		c0.739,0.292,1.324,0.877,1.616,1.616c0.444,1.119,0.341,3.774,0.341,5.011C79.485,39.739,79.588,42.396,79.144,43.51L79.144,43.51
		z"/>
</g>
<g id="Social_Icons_1_" transform="translate(-27.934 -30)">
	<path id="logo_footer_social-facebook_1_" fill="#B7A66D" d="M45.034,57.552c0-4.723-3.829-8.552-8.552-8.551
		c-4.723,0-8.552,3.829-8.552,8.552c0,4.209,3.063,7.792,7.22,8.447v-5.977h-2.173v-2.473h2.172v-1.884
		c-0.176-1.657,1.024-3.144,2.682-3.319c0.182-0.02,0.366-0.021,0.548-0.008c0.642,0.01,1.281,0.065,1.914,0.167v2.101h-1.078
		c-0.676-0.09-1.298,0.387-1.387,1.063c-0.012,0.09-0.014,0.182-0.005,0.271v1.605h2.372l-0.379,2.473h-1.993V66
		C41.976,65.34,45.034,61.758,45.034,57.552z"/>
	<path id="logo_footer_social-twitter_1_" fill="#B7A66D" d="M152.784,53.236c0.014,0.187,0.014,0.373,0.014,0.559
		c0.045,6.695-5.344,12.159-12.039,12.205c-0.055,0-0.111,0-0.166,0c-2.336,0.006-4.623-0.662-6.588-1.926
		c0.344,0.037,0.689,0.055,1.035,0.053c1.932,0.005,3.807-0.641,5.326-1.833c-1.836-0.034-3.445-1.229-4.012-2.976
		c0.27,0.041,0.539,0.063,0.811,0.064c0.381-0.001,0.76-0.05,1.129-0.146c-2.002-0.404-3.441-2.166-3.439-4.209v-0.053
		c0.596,0.332,1.26,0.519,1.939,0.545c-1.889-1.263-2.471-3.775-1.328-5.738c2.178,2.682,5.393,4.313,8.844,4.488
		c-0.066-0.322-0.104-0.652-0.104-0.982c0.002-2.372,1.928-4.292,4.299-4.29c1.184,0.001,2.313,0.491,3.125,1.354
		c0.961-0.186,1.883-0.535,2.723-1.035c-0.318,0.992-0.99,1.832-1.887,2.363c0.854-0.097,1.686-0.32,2.471-0.664
		C154.349,51.873,153.62,52.623,152.784,53.236L152.784,53.236z"/>
	<path id="logo_footer_social-linkedin_1_" fill="#B7A66D" d="M103.298,66h-3.525V54.65h3.525V66z M101.534,53.102
		c-1.135,0.006-2.057-0.908-2.063-2.041s0.908-2.056,2.041-2.061s2.055,0.908,2.063,2.041
		C103.575,52.172,102.665,53.093,101.534,53.102z M116.493,66h-3.521v-5.525c0-1.315-0.025-3.005-1.832-3.005
		c-1.832,0-2.113,1.431-2.113,2.911v5.62h-3.521V54.65h3.381v1.548h0.049c0.689-1.181,1.971-1.886,3.334-1.833
		c3.568,0,4.225,2.349,4.225,5.4V66L116.493,66z"/>
	<path id="logo_footer_social-instagram_1_" fill="#B7A66D" d="M72.517,53.141c-2.406,0-4.358,1.952-4.358,4.359
		s1.952,4.359,4.358,4.359c2.408,0,4.359-1.952,4.359-4.359c0.004-2.402-1.941-4.355-4.345-4.359
		C72.526,53.141,72.522,53.141,72.517,53.141z M72.517,60.333c-1.564,0-2.834-1.269-2.834-2.834s1.27-2.834,2.834-2.834
		c1.565,0,2.834,1.269,2.834,2.834l0,0C75.349,59.063,74.081,60.33,72.517,60.333z M78.07,52.962c0,0.562-0.456,1.017-1.017,1.017
		c-0.563,0-1.018-0.455-1.018-1.017s0.455-1.017,1.018-1.017l0,0c0.56-0.002,1.014,0.451,1.017,1.011
		C78.07,52.958,78.07,52.96,78.07,52.962L78.07,52.962z M80.957,53.994c0.028-1.321-0.463-2.6-1.369-3.561
		c-0.962-0.906-2.241-1.397-3.562-1.373c-1.4-0.08-5.61-0.08-7.014,0c-1.322-0.026-2.6,0.465-3.563,1.369
		c-0.908,0.961-1.402,2.239-1.377,3.562c-0.08,1.399-0.08,5.61,0,7.014c-0.028,1.321,0.465,2.601,1.373,3.562
		c0.963,0.904,2.24,1.397,3.563,1.373c1.399,0.08,5.609,0.08,7.014,0c1.322,0.029,2.604-0.463,3.565-1.373
		c0.905-0.961,1.398-2.239,1.373-3.562C81.037,59.602,81.037,55.398,80.957,53.994L80.957,53.994z M79.143,62.51
		c-0.291,0.739-0.877,1.324-1.615,1.616c-1.119,0.444-3.774,0.341-5.012,0.341c-1.236,0-3.899,0.1-5.011-0.341
		c-0.739-0.291-1.325-0.876-1.618-1.615c-0.443-1.118-0.341-3.774-0.341-5.011s-0.1-3.9,0.341-5.011
		c0.293-0.739,0.879-1.324,1.618-1.614c1.119-0.443,3.774-0.341,5.011-0.341c1.237,0,3.9-0.101,5.012,0.341
		c0.738,0.292,1.324,0.877,1.615,1.616c0.444,1.118,0.342,3.774,0.342,5.011C79.485,58.739,79.588,61.396,79.143,62.51L79.143,62.51
		z"/>
</g>
</svg>
