<svg xmlns="http://www.w3.org/2000/svg" width="14" height="15.999" viewBox="0 0 14 15.999">
  <path id="_i_class_fa-light_fa-user_i_" data-name="&lt;i class=&quot;fa-light fa-user&quot;&gt;&lt;/i&gt;" d="M7,8A4,4,0,1,0,3,4,4,4,0,0,0,7,8ZM7,1A3,3,0,1,1,4,4,3,3,0,0,1,7,1ZM8.584,9.5H5.416A5.416,5.416,0,0,0,0,14.916,1.083,1.083,0,0,0,1.083,16H12.918A1.081,1.081,0,0,0,14,14.916,5.416,5.416,0,0,0,8.584,9.5ZM12.916,15H1.083A.084.084,0,0,1,1,14.916,4.421,4.421,0,0,1,5.416,10.5H8.581A4.422,4.422,0,0,1,13,14.916.084.084,0,0,1,12.916,15Z" fill="#417630"/>
</svg>
